<?xml version="1.0" encoding="utf-8" standalone="no"?>
<!DOCTYPE svg PUBLIC "-//W3C//DTD SVG 1.1//EN" "http://www.w3.org/Graphics/SVG/1.1/DTD/svg11.dtd">
<svg width="2000px" height="2000px" version="1.1" xmlns="http://www.w3.org/2000/svg" xmlns:xlink="http://www.w3.org/1999/xlink">
<g id="bg">
<rect x="0" y="0" width="2000px" height="2000px" style="fill:rgb(255,255,255);"/>
</g>
<g id="ideograms">
<g id="highlighttrack_4">
<path d="M1170.738,214.149 A804.185,804.185 40.000 0,1 1401.651,303.301 L1406.645,294.637 A814.185,814.185 0.000 0,0 1172.861,204.377 Z" style="stroke-width:1.0;stroke:rgb(0,0,0);stroke-linecap:round;fill:rgb(46,107,230);" />
<path d="M1057.301,197.859 A804.185,804.185 40.000 0,1 1095.357,201.489 L1096.543,191.559 A814.185,814.185 0.000 0,0 1058.013,187.884 Z" style="stroke-width:1.0;stroke:rgb(0,0,0);stroke-linecap:round;fill:rgb(46,46,230);" />
<path d="M1095.357,201.489 A804.185,804.185 40.000 0,1 1170.738,214.149 L1172.861,204.377 A814.185,814.185 0.000 0,0 1096.543,191.559 Z" style="stroke-width:1.0;stroke:rgb(0,0,0);stroke-linecap:round;fill:rgb(168,46,230);" />
<path d="M1000.000,195.815 A804.185,804.185 40.000 0,1 1057.301,197.859 L1058.013,187.884 A814.185,814.185 0.000 0,0 1000.000,185.815 Z" style="stroke-width:1.0;stroke:rgb(0,0,0);stroke-linecap:round;fill:rgb(107,230,46);" />
</g>
<path d="M1000.000,185.000 A815.000,815.000 40.000 0,1 1407.053,293.931 L1424.533,263.609 A850.000,850.000 0.000 0,0 1000.000,150.000 Z" style="stroke-width:1.0;stroke:rgb(0,0,0);stroke-linecap:round;fill:rgb(46,168,230);" />
<text x="1234.1" y="169.6" font-size="31.2px" font-family="CMUBright-Roman" style="text-anchor:start;fill:rgb(0,0,0);" transform="rotate(285.0,1234.1,169.6)" >Real</text>
<path d="M1000.000,185.000 A815.000,815.000 40.000 0,1 1407.053,293.931 L1424.533,263.609 A850.000,850.000 0.000 0,0 1000.000,150.000 Z" style="stroke-width:1.0;stroke:rgb(0,0,0);stroke-linecap:round;fill:none;" />
<g id="highlighttrack_4">
<path d="M1578.426,441.308 A804.185,804.185 40.000 0,1 1662.974,544.830 L1671.218,539.170 A814.185,814.185 0.000 0,0 1585.619,434.361 Z" style="stroke-width:1.0;stroke:rgb(0,0,0);stroke-linecap:round;fill:rgb(46,107,230);" />
<path d="M1430.600,320.812 A804.185,804.185 40.000 0,1 1462.392,342.043 L1468.142,333.861 A814.185,814.185 0.000 0,0 1435.955,312.366 Z" style="stroke-width:1.0;stroke:rgb(0,0,0);stroke-linecap:round;fill:rgb(168,230,46);" />
<path d="M1508.098,376.662 A804.185,804.185 40.000 0,1 1578.426,441.308 L1585.619,434.361 A814.185,814.185 0.000 0,0 1514.416,368.911 Z" style="stroke-width:1.0;stroke:rgb(0,0,0);stroke-linecap:round;fill:rgb(168,46,230);" />
<path d="M1462.392,342.043 A804.185,804.185 40.000 0,1 1508.098,376.662 L1514.416,368.911 A814.185,814.185 0.000 0,0 1468.142,333.861 Z" style="stroke-width:1.0;stroke:rgb(0,0,0);stroke-linecap:round;fill:rgb(107,230,46);" />
</g>
<path d="M1436.391,311.678 A815.000,815.000 40.000 0,1 1671.890,538.709 L1700.744,518.899 A850.000,850.000 0.000 0,0 1455.132,282.118 Z" style="stroke-width:1.0;stroke:rgb(0,0,0);stroke-linecap:round;fill:rgb(46,230,230);" />
<text x="1607.0" y="386.9" font-size="31.2px" font-family="CMUBright-Roman" style="text-anchor:start;fill:rgb(0,0,0);" transform="rotate(314.0,1607.0,386.9)" >Milan</text>
<path d="M1436.391,311.678 A815.000,815.000 40.000 0,1 1671.890,538.709 L1700.744,518.899 A850.000,850.000 0.000 0,0 1455.132,282.118 Z" style="stroke-width:1.0;stroke:rgb(0,0,0);stroke-linecap:round;fill:none;" />
<g id="highlighttrack_4">
<path d="M1756.627,727.549 A804.185,804.185 40.000 0,1 1783.595,819.189 L1793.339,816.940 A814.185,814.185 0.000 0,0 1766.035,724.161 Z" style="stroke-width:1.0;stroke:rgb(0,0,0);stroke-linecap:round;fill:rgb(46,107,230);" />
<path d="M1681.532,573.119 A804.185,804.185 40.000 0,1 1718.982,639.753 L1727.923,635.274 A814.185,814.185 0.000 0,0 1690.007,567.811 Z" style="stroke-width:1.0;stroke:rgb(0,0,0);stroke-linecap:round;fill:rgb(168,230,46);" />
<path d="M1718.982,639.753 A804.185,804.185 40.000 0,1 1756.627,727.549 L1766.035,724.161 A814.185,814.185 0.000 0,0 1727.923,635.274 Z" style="stroke-width:1.0;stroke:rgb(0,0,0);stroke-linecap:round;fill:rgb(168,46,230);" />
</g>
<path d="M1690.698,567.379 A815.000,815.000 40.000 0,1 1794.133,816.757 L1828.237,808.888 A850.000,850.000 0.000 0,0 1720.360,548.800 Z" style="stroke-width:1.0;stroke:rgb(0,0,0);stroke-linecap:round;fill:rgb(230,168,46);" />
<text x="1801.3" y="680.1" font-size="31.2px" font-family="CMUBright-Roman" style="text-anchor:start;fill:rgb(0,0,0);" transform="rotate(337.5,1801.3,680.1)" >Barca</text>
<path d="M1690.698,567.379 A815.000,815.000 40.000 0,1 1794.133,816.757 L1828.237,808.888 A850.000,850.000 0.000 0,0 1720.360,548.800 Z" style="stroke-width:1.0;stroke:rgb(0,0,0);stroke-linecap:round;fill:none;" />
<g id="highlighttrack_4">
<path d="M1803.473,966.174 A804.185,804.185 40.000 0,1 1801.816,1061.685 L1811.786,1062.452 A814.185,814.185 0.000 0,0 1813.464,965.753 Z" style="stroke-width:1.0;stroke:rgb(0,0,0);stroke-linecap:round;fill:rgb(46,107,230);" />
<path d="M1790.507,852.309 A804.185,804.185 40.000 0,1 1799.021,909.010 L1808.957,907.879 A814.185,814.185 0.000 0,0 1800.337,850.472 Z" style="stroke-width:1.0;stroke:rgb(0,0,0);stroke-linecap:round;fill:rgb(46,46,230);" />
<path d="M1799.021,909.010 A804.185,804.185 40.000 0,1 1803.473,966.174 L1813.464,965.753 A814.185,814.185 0.000 0,0 1808.957,907.879 Z" style="stroke-width:1.0;stroke:rgb(0,0,0);stroke-linecap:round;fill:rgb(168,46,230);" />
</g>
<path d="M1801.138,850.323 A815.000,815.000 40.000 0,1 1812.599,1062.515 L1847.496,1065.200 A850.000,850.000 0.000 0,0 1835.542,843.895 Z" style="stroke-width:1.0;stroke:rgb(0,0,0);stroke-linecap:round;fill:rgb(46,230,168);" />
<text x="1862.1" y="967.5" font-size="31.2px" font-family="CMUBright-Roman" style="text-anchor:start;fill:rgb(0,0,0);" transform="rotate(356.9,1862.1,967.5)" >Liverp</text>
<path d="M1801.138,850.323 A815.000,815.000 40.000 0,1 1812.599,1062.515 L1847.496,1065.200 A850.000,850.000 0.000 0,0 1835.542,843.895 Z" style="stroke-width:1.0;stroke:rgb(0,0,0);stroke-linecap:round;fill:none;" />
<g id="highlighttrack_4">
<path d="M1760.062,1262.717 A804.185,804.185 40.000 0,1 1746.717,1298.541 L1756.003,1302.253 A814.185,814.185 0.000 0,0 1769.513,1265.983 Z" style="stroke-width:1.0;stroke:rgb(0,0,0);stroke-linecap:round;fill:rgb(46,107,230);" />
<path d="M1785.851,1170.738 A804.185,804.185 40.000 0,1 1771.688,1226.298 L1781.284,1229.112 A814.185,814.185 0.000 0,0 1795.623,1172.861 Z" style="stroke-width:1.0;stroke:rgb(0,0,0);stroke-linecap:round;fill:rgb(46,46,230);" />
<path d="M1796.019,1114.310 A804.185,804.185 40.000 0,1 1793.077,1133.198 L1802.939,1134.854 A814.185,814.185 0.000 0,0 1805.918,1115.731 Z" style="stroke-width:1.0;stroke:rgb(0,0,0);stroke-linecap:round;fill:rgb(168,230,46);" />
<path d="M1798.511,1095.357 A804.185,804.185 40.000 0,1 1796.019,1114.310 L1805.918,1115.731 A814.185,814.185 0.000 0,0 1808.441,1096.543 Z" style="stroke-width:1.0;stroke:rgb(0,0,0);stroke-linecap:round;fill:rgb(107,46,230);" />
<path d="M1771.688,1226.298 A804.185,804.185 40.000 0,1 1760.062,1262.717 L1769.513,1265.983 A814.185,814.185 0.000 0,0 1781.284,1229.112 Z" style="stroke-width:1.0;stroke:rgb(0,0,0);stroke-linecap:round;fill:rgb(168,46,230);" />
<path d="M1793.077,1133.198 A804.185,804.185 40.000 0,1 1785.851,1170.738 L1795.623,1172.861 A814.185,814.185 0.000 0,0 1802.939,1134.854 Z" style="stroke-width:1.0;stroke:rgb(0,0,0);stroke-linecap:round;fill:rgb(107,230,46);" />
</g>
<path d="M1809.250,1096.639 A815.000,815.000 40.000 0,1 1756.759,1302.556 L1789.258,1315.549 A850.000,850.000 0.000 0,0 1844.003,1100.790 Z" style="stroke-width:1.0;stroke:rgb(0,0,0);stroke-linecap:round;fill:rgb(46,230,107);" />
<text x="1833.0" y="1224.7" font-size="31.2px" font-family="CMUBright-Roman" style="text-anchor:start;fill:rgb(0,0,0);" transform="rotate(14.3,1833.0,1224.7)" >Juve</text>
<path d="M1809.250,1096.639 A815.000,815.000 40.000 0,1 1756.759,1302.556 L1789.258,1315.549 A850.000,850.000 0.000 0,0 1844.003,1100.790 Z" style="stroke-width:1.0;stroke:rgb(0,0,0);stroke-linecap:round;fill:none;" />
<g id="highlighttrack_4">
<path d="M1689.231,1414.335 A804.185,804.185 40.000 0,1 1635.239,1493.138 L1643.138,1499.270 A814.185,814.185 0.000 0,0 1697.802,1419.487 Z" style="stroke-width:1.0;stroke:rgb(0,0,0);stroke-linecap:round;fill:rgb(46,107,230);" />
<path d="M1708.144,1381.112 A804.185,804.185 40.000 0,1 1698.885,1397.836 L1707.576,1402.783 A814.185,814.185 0.000 0,0 1716.949,1385.851 Z" style="stroke-width:1.0;stroke:rgb(0,0,0);stroke-linecap:round;fill:rgb(46,46,230);" />
<path d="M1733.499,1329.686 A804.185,804.185 40.000 0,1 1725.456,1347.027 L1734.477,1351.342 A814.185,814.185 0.000 0,0 1742.620,1333.785 Z" style="stroke-width:1.0;stroke:rgb(0,0,0);stroke-linecap:round;fill:rgb(168,230,46);" />
<path d="M1698.885,1397.836 A804.185,804.185 40.000 0,1 1689.231,1414.335 L1697.802,1419.487 A814.185,814.185 0.000 0,0 1707.576,1402.783 Z" style="stroke-width:1.0;stroke:rgb(0,0,0);stroke-linecap:round;fill:rgb(168,46,230);" />
<path d="M1725.456,1347.027 A804.185,804.185 40.000 0,1 1708.144,1381.112 L1716.949,1385.851 A814.185,814.185 0.000 0,0 1734.477,1351.342 Z" style="stroke-width:1.0;stroke:rgb(0,0,0);stroke-linecap:round;fill:rgb(107,230,46);" />
</g>
<path d="M1743.363,1334.119 A815.000,815.000 40.000 0,1 1643.782,1499.770 L1671.429,1521.233 A850.000,850.000 0.000 0,0 1775.287,1348.468 Z" style="stroke-width:1.0;stroke:rgb(0,0,0);stroke-linecap:round;fill:rgb(230,230,46);" />
<text x="1732.1" y="1456.4" font-size="31.2px" font-family="CMUBright-Roman" style="text-anchor:start;fill:rgb(0,0,0);" transform="rotate(31.0,1732.1,1456.4)" >Bayern</text>
<path d="M1743.363,1334.119 A815.000,815.000 40.000 0,1 1643.782,1499.770 L1671.429,1521.233 A850.000,850.000 0.000 0,0 1775.287,1348.468 Z" style="stroke-width:1.0;stroke:rgb(0,0,0);stroke-linecap:round;fill:none;" />
<g id="highlighttrack_4">
<path d="M1533.867,1601.414 A804.185,804.185 40.000 0,1 1474.357,1649.384 L1480.255,1657.459 A814.185,814.185 0.000 0,0 1540.506,1608.893 Z" style="stroke-width:1.0;stroke:rgb(0,0,0);stroke-linecap:round;fill:rgb(46,107,230);" />
<path d="M1575.363,1561.846 A804.185,804.185 40.000 0,1 1561.846,1575.363 L1568.833,1582.518 A814.185,814.185 0.000 0,0 1582.518,1568.833 Z" style="stroke-width:1.0;stroke:rgb(0,0,0);stroke-linecap:round;fill:rgb(46,46,230);" />
<path d="M1613.934,1519.422 A804.185,804.185 40.000 0,1 1601.414,1533.867 L1608.893,1540.506 A814.185,814.185 0.000 0,0 1621.568,1525.881 Z" style="stroke-width:1.0;stroke:rgb(0,0,0);stroke-linecap:round;fill:rgb(168,230,46);" />
<path d="M1561.846,1575.363 A804.185,804.185 40.000 0,1 1533.867,1601.414 L1540.506,1608.893 A814.185,814.185 0.000 0,0 1568.833,1582.518 Z" style="stroke-width:1.0;stroke:rgb(0,0,0);stroke-linecap:round;fill:rgb(168,46,230);" />
<path d="M1601.414,1533.867 A804.185,804.185 40.000 0,1 1575.363,1561.846 L1582.518,1568.833 A814.185,814.185 0.000 0,0 1608.893,1540.506 Z" style="stroke-width:1.0;stroke:rgb(0,0,0);stroke-linecap:round;fill:rgb(107,230,46);" />
</g>
<path d="M1622.190,1526.407 A815.000,815.000 40.000 0,1 1480.736,1658.117 L1501.381,1686.380 A850.000,850.000 0.000 0,0 1648.910,1549.013 Z" style="stroke-width:1.0;stroke:rgb(0,0,0);stroke-linecap:round;fill:rgb(230,46,46);" />
<text x="1577.6" y="1640.9" font-size="31.2px" font-family="CMUBright-Roman" style="text-anchor:start;fill:rgb(0,0,0);" transform="rotate(47.0,1577.6,1640.9)" >Ajax</text>
<path d="M1622.190,1526.407 A815.000,815.000 40.000 0,1 1480.736,1658.117 L1501.381,1686.380 A850.000,850.000 0.000 0,0 1648.910,1549.013 Z" style="stroke-width:1.0;stroke:rgb(0,0,0);stroke-linecap:round;fill:none;" />
<g id="highlighttrack_4">
<path d="M1414.335,1689.231 A804.185,804.185 40.000 0,1 1364.172,1717.002 L1368.701,1725.918 A814.185,814.185 0.000 0,0 1419.487,1697.802 Z" style="stroke-width:1.0;stroke:rgb(0,0,0);stroke-linecap:round;fill:rgb(46,46,230);" />
<path d="M1446.622,1668.762 A804.185,804.185 40.000 0,1 1430.600,1679.188 L1435.955,1687.634 A814.185,814.185 0.000 0,0 1452.176,1677.078 Z" style="stroke-width:1.0;stroke:rgb(0,0,0);stroke-linecap:round;fill:rgb(168,230,46);" />
<path d="M1364.172,1717.002 A804.185,804.185 40.000 0,1 1312.158,1741.128 L1316.040,1750.344 A814.185,814.185 0.000 0,0 1368.701,1725.918 Z" style="stroke-width:1.0;stroke:rgb(0,0,0);stroke-linecap:round;fill:rgb(168,46,230);" />
<path d="M1430.600,1679.188 A804.185,804.185 40.000 0,1 1414.335,1689.231 L1419.487,1697.802 A814.185,814.185 0.000 0,0 1435.955,1687.634 Z" style="stroke-width:1.0;stroke:rgb(0,0,0);stroke-linecap:round;fill:rgb(107,230,46);" />
</g>
<path d="M1452.629,1677.755 A815.000,815.000 40.000 0,1 1316.356,1751.095 L1329.942,1783.351 A850.000,850.000 0.000 0,0 1472.067,1706.861 Z" style="stroke-width:1.0;stroke:rgb(0,0,0);stroke-linecap:round;fill:rgb(230,107,46);" />
<text x="1398.7" y="1765.1" font-size="31.2px" font-family="CMUBright-Roman" style="text-anchor:start;fill:rgb(0,0,0);" transform="rotate(61.7,1398.7,1765.1)" >Atl.</text>
<path d="M1452.629,1677.755 A815.000,815.000 40.000 0,1 1316.356,1751.095 L1329.942,1783.351 A850.000,850.000 0.000 0,0 1472.067,1706.861 Z" style="stroke-width:1.0;stroke:rgb(0,0,0);stroke-linecap:round;fill:none;" />
<g id="highlighttrack_4">
<path d="M1189.369,1781.571 A804.185,804.185 40.000 0,1 1133.198,1793.077 L1134.854,1802.939 A814.185,814.185 0.000 0,0 1191.723,1791.290 Z" style="stroke-width:1.0;stroke:rgb(0,0,0);stroke-linecap:round;fill:rgb(46,107,230);" />
<path d="M1244.577,1766.091 A804.185,804.185 40.000 0,1 1189.369,1781.571 L1191.723,1791.290 A814.185,814.185 0.000 0,0 1247.618,1775.618 Z" style="stroke-width:1.0;stroke:rgb(0,0,0);stroke-linecap:round;fill:rgb(46,46,230);" />
<path d="M1280.708,1753.602 A804.185,804.185 40.000 0,1 1244.577,1766.091 L1247.618,1775.618 A814.185,814.185 0.000 0,0 1284.199,1762.973 Z" style="stroke-width:1.0;stroke:rgb(0,0,0);stroke-linecap:round;fill:rgb(107,230,46);" />
</g>
<path d="M1284.483,1763.737 A815.000,815.000 40.000 0,1 1134.989,1803.743 L1140.786,1838.260 A850.000,850.000 0.000 0,0 1296.700,1796.536 Z" style="stroke-width:1.0;stroke:rgb(0,0,0);stroke-linecap:round;fill:rgb(46,230,46);" />
<text x="1211.9" y="1836.3" font-size="31.2px" font-family="CMUBright-Roman" style="text-anchor:start;fill:rgb(0,0,0);" transform="rotate(75.0,1211.9,1836.3)" >Inter</text>
<path d="M1284.483,1763.737 A815.000,815.000 40.000 0,1 1134.989,1803.743 L1140.786,1838.260 A850.000,850.000 0.000 0,0 1296.700,1796.536 Z" style="stroke-width:1.0;stroke:rgb(0,0,0);stroke-linecap:round;fill:none;" />
<g id="highlighttrack_4">
<path d="M1023.510,1803.841 A804.185,804.185 40.000 0,1 966.174,1803.473 L965.753,1813.464 A814.185,814.185 0.000 0,0 1023.802,1813.837 Z" style="stroke-width:1.0;stroke:rgb(0,0,0);stroke-linecap:round;fill:rgb(46,107,230);" />
<path d="M1061.685,1801.816 A804.185,804.185 40.000 0,1 1042.610,1803.055 L1043.139,1813.041 A814.185,814.185 0.000 0,0 1062.452,1811.786 Z" style="stroke-width:1.0;stroke:rgb(0,0,0);stroke-linecap:round;fill:rgb(46,46,230);" />
<path d="M1099.721,1797.978 A804.185,804.185 40.000 0,1 1080.726,1800.123 L1081.730,1810.072 A814.185,814.185 0.000 0,0 1100.961,1807.901 Z" style="stroke-width:1.0;stroke:rgb(0,0,0);stroke-linecap:round;fill:rgb(168,230,46);" />
<path d="M1042.610,1803.055 A804.185,804.185 40.000 0,1 1023.510,1803.841 L1023.802,1813.837 A814.185,814.185 0.000 0,0 1043.139,1813.041 Z" style="stroke-width:1.0;stroke:rgb(0,0,0);stroke-linecap:round;fill:rgb(168,46,230);" />
<path d="M1080.726,1800.123 A804.185,804.185 40.000 0,1 1061.685,1801.816 L1062.452,1811.786 A814.185,814.185 0.000 0,0 1081.730,1810.072 Z" style="stroke-width:1.0;stroke:rgb(0,0,0);stroke-linecap:round;fill:rgb(107,230,46);" />
</g>
<path d="M1101.062,1808.710 A815.000,815.000 40.000 0,1 965.719,1814.279 L964.247,1849.248 A850.000,850.000 0.000 0,0 1105.403,1843.440 Z" style="stroke-width:1.0;stroke:rgb(0,0,0);stroke-linecap:round;fill:rgb(230,46,230);" />
<text x="1024.0" y="1862.4" font-size="31.2px" font-family="CMUBright-Roman" style="text-anchor:start;fill:rgb(0,0,0);" transform="rotate(87.6,1024.0,1862.4)" >United</text>
<path d="M1101.062,1808.710 A815.000,815.000 40.000 0,1 965.719,1814.279 L964.247,1849.248 A850.000,850.000 0.000 0,0 1105.403,1843.440 Z" style="stroke-width:1.0;stroke:rgb(0,0,0);stroke-linecap:round;fill:none;" />
<g id="highlighttrack_3">
<path d="M381.679,1498.407 A794.185,794.185 40.000 0,1 259.388,1286.748 L250.063,1290.358 A804.185,804.185 0.000 0,0 373.894,1504.682 Z" style="stroke-width:1.0;stroke:rgb(0,0,0);stroke-linecap:round;fill:rgb(46,168,230);" />
<path d="M472.771,1593.936 A794.185,794.185 40.000 0,1 381.679,1498.407 L373.894,1504.682 A804.185,804.185 0.000 0,0 466.133,1601.414 Z" style="stroke-width:1.0;stroke:rgb(0,0,0);stroke-linecap:round;fill:rgb(46,230,230);" />
<path d="M546.917,1652.262 A794.185,794.185 40.000 0,1 472.771,1593.936 L466.133,1601.414 A804.185,804.185 0.000 0,0 541.212,1660.475 Z" style="stroke-width:1.0;stroke:rgb(0,0,0);stroke-linecap:round;fill:rgb(230,168,46);" />
<path d="M627.457,1701.385 A794.185,794.185 40.000 0,1 546.917,1652.262 L541.212,1660.475 A804.185,804.185 0.000 0,0 622.766,1710.217 Z" style="stroke-width:1.0;stroke:rgb(0,0,0);stroke-linecap:round;fill:rgb(46,230,168);" />
<path d="M661.210,1718.298 A794.185,794.185 40.000 0,1 627.457,1701.385 L622.766,1710.217 A804.185,804.185 0.000 0,0 656.944,1727.342 Z" style="stroke-width:1.0;stroke:rgb(0,0,0);stroke-linecap:round;fill:rgb(46,230,107);" />
<path d="M748.773,1753.402 A794.185,794.185 40.000 0,1 661.210,1718.298 L656.944,1727.342 A804.185,804.185 0.000 0,0 745.610,1762.889 Z" style="stroke-width:1.0;stroke:rgb(0,0,0);stroke-linecap:round;fill:rgb(230,230,46);" />
<path d="M821.437,1773.851 A794.185,794.185 40.000 0,1 748.773,1753.402 L745.610,1762.889 A804.185,804.185 0.000 0,0 819.189,1783.595 Z" style="stroke-width:1.0;stroke:rgb(0,0,0);stroke-linecap:round;fill:rgb(230,46,46);" />
<path d="M877.030,1784.607 A794.185,794.185 40.000 0,1 821.437,1773.851 L819.189,1783.595 A804.185,804.185 0.000 0,0 875.482,1794.486 Z" style="stroke-width:1.0;stroke:rgb(0,0,0);stroke-linecap:round;fill:rgb(46,230,46);" />
<path d="M933.248,1791.375 A794.185,794.185 40.000 0,1 877.030,1784.607 L875.482,1794.486 A804.185,804.185 0.000 0,0 932.408,1801.339 Z" style="stroke-width:1.0;stroke:rgb(0,0,0);stroke-linecap:round;fill:rgb(230,46,230);" />
</g>
<path d="M931.499,1812.116 A815.000,815.000 40.000 0,1 239.978,1294.263 L207.339,1306.900 A850.000,850.000 0.000 0,0 928.557,1846.992 Z" style="stroke-width:1.0;stroke:rgb(0,0,0);stroke-linecap:round;fill:rgb(46,107,230);" />
<text x="492.5" y="1697.7" font-size="31.2px" font-family="CMUBright-Roman" style="text-anchor:end;fill:rgb(0,0,0);" transform="rotate(-53.2,492.5,1697.7)" >UCL</text>
<path d="M931.499,1812.116 A815.000,815.000 40.000 0,1 239.978,1294.263 L207.339,1306.900 A850.000,850.000 0.000 0,0 928.557,1846.992 Z" style="stroke-width:1.0;stroke:rgb(0,0,0);stroke-linecap:round;fill:none;" />
<g id="highlighttrack_3">
<path d="M220.965,845.618 A794.185,794.185 40.000 0,1 239.141,772.352 L229.561,769.486 A804.185,804.185 0.000 0,0 211.156,843.674 Z" style="stroke-width:1.0;stroke:rgb(0,0,0);stroke-linecap:round;fill:rgb(46,168,230);" />
<path d="M208.155,939.082 A794.185,794.185 40.000 0,1 220.965,845.618 L211.156,843.674 A804.185,804.185 0.000 0,0 198.184,938.315 Z" style="stroke-width:1.0;stroke:rgb(0,0,0);stroke-linecap:round;fill:rgb(46,230,230);" />
<path d="M206.518,1033.405 A794.185,794.185 40.000 0,1 208.155,939.082 L198.184,938.315 A804.185,804.185 0.000 0,0 196.527,1033.826 Z" style="stroke-width:1.0;stroke:rgb(0,0,0);stroke-linecap:round;fill:rgb(230,168,46);" />
<path d="M210.915,1089.858 A794.185,794.185 40.000 0,1 206.518,1033.405 L196.527,1033.826 A804.185,804.185 0.000 0,0 200.979,1090.990 Z" style="stroke-width:1.0;stroke:rgb(0,0,0);stroke-linecap:round;fill:rgb(46,230,168);" />
<path d="M216.077,1127.258 A794.185,794.185 40.000 0,1 210.915,1089.858 L200.979,1090.990 A804.185,804.185 0.000 0,0 206.206,1128.860 Z" style="stroke-width:1.0;stroke:rgb(0,0,0);stroke-linecap:round;fill:rgb(46,230,107);" />
<path d="M219.323,1145.855 A794.185,794.185 40.000 0,1 216.077,1127.258 L206.206,1128.860 A804.185,804.185 0.000 0,0 209.493,1147.691 Z" style="stroke-width:1.0;stroke:rgb(0,0,0);stroke-linecap:round;fill:rgb(230,230,46);" />
<path d="M227.137,1182.791 A794.185,794.185 40.000 0,1 219.323,1145.855 L209.493,1147.691 A804.185,804.185 0.000 0,0 217.405,1185.093 Z" style="stroke-width:1.0;stroke:rgb(0,0,0);stroke-linecap:round;fill:rgb(230,46,46);" />
<path d="M242.126,1237.395 A794.185,794.185 40.000 0,1 227.137,1182.791 L217.405,1185.093 A804.185,804.185 0.000 0,0 232.583,1240.384 Z" style="stroke-width:1.0;stroke:rgb(0,0,0);stroke-linecap:round;fill:rgb(230,107,46);" />
<path d="M247.983,1255.342 A794.185,794.185 40.000 0,1 242.126,1237.395 L232.583,1240.384 A804.185,804.185 0.000 0,0 238.513,1258.557 Z" style="stroke-width:1.0;stroke:rgb(0,0,0);stroke-linecap:round;fill:rgb(230,46,230);" />
</g>
<path d="M228.273,1262.034 A815.000,815.000 40.000 0,1 219.199,766.386 L185.668,756.353 A850.000,850.000 0.000 0,0 195.131,1273.287 Z" style="stroke-width:1.0;stroke:rgb(0,0,0);stroke-linecap:round;fill:rgb(168,46,230);" />
<text x="137.7" y="1027.8" font-size="31.2px" font-family="CMUBright-Roman" style="text-anchor:end;fill:rgb(0,0,0);" transform="rotate(-1.0,137.7,1027.8)" >USC</text>
<path d="M228.273,1262.034 A815.000,815.000 40.000 0,1 219.199,766.386 L185.668,756.353 A850.000,850.000 0.000 0,0 195.131,1273.287 Z" style="stroke-width:1.0;stroke:rgb(0,0,0);stroke-linecap:round;fill:none;" />
<g id="highlighttrack_3">
<path d="M387.166,494.862 A794.185,794.185 40.000 0,1 411.865,466.308 L404.459,459.588 A804.185,804.185 0.000 0,0 379.449,488.502 Z" style="stroke-width:1.0;stroke:rgb(0,0,0);stroke-linecap:round;fill:rgb(46,168,230);" />
<path d="M352.731,539.812 A794.185,794.185 40.000 0,1 387.166,494.862 L379.449,488.502 A804.185,804.185 0.000 0,0 344.581,534.018 Z" style="stroke-width:1.0;stroke:rgb(0,0,0);stroke-linecap:round;fill:rgb(46,230,168);" />
<path d="M321.587,587.102 A794.185,794.185 40.000 0,1 352.731,539.812 L344.581,534.018 A804.185,804.185 0.000 0,0 313.044,581.903 Z" style="stroke-width:1.0;stroke:rgb(0,0,0);stroke-linecap:round;fill:rgb(46,230,107);" />
<path d="M311.964,603.344 A794.185,794.185 40.000 0,1 321.587,587.102 L313.044,581.903 A804.185,804.185 0.000 0,0 303.301,598.349 Z" style="stroke-width:1.0;stroke:rgb(0,0,0);stroke-linecap:round;fill:rgb(230,230,46);" />
<path d="M302.730,619.809 A794.185,794.185 40.000 0,1 311.964,603.344 L303.301,598.349 A804.185,804.185 0.000 0,0 293.951,615.022 Z" style="stroke-width:1.0;stroke:rgb(0,0,0);stroke-linecap:round;fill:rgb(230,46,46);" />
<path d="M277.413,670.458 A794.185,794.185 40.000 0,1 302.730,619.809 L293.951,615.022 A804.185,804.185 0.000 0,0 268.314,666.309 Z" style="stroke-width:1.0;stroke:rgb(0,0,0);stroke-linecap:round;fill:rgb(230,107,46);" />
<path d="M255.769,722.782 A794.185,794.185 40.000 0,1 277.413,670.458 L268.314,666.309 A804.185,804.185 0.000 0,0 246.398,719.292 Z" style="stroke-width:1.0;stroke:rgb(0,0,0);stroke-linecap:round;fill:rgb(46,230,46);" />
<path d="M249.390,740.550 A794.185,794.185 40.000 0,1 255.769,722.782 L246.398,719.292 A804.185,804.185 0.000 0,0 239.938,737.283 Z" style="stroke-width:1.0;stroke:rgb(0,0,0);stroke-linecap:round;fill:rgb(230,46,230);" />
</g>
<path d="M229.717,733.750 A815.000,815.000 40.000 0,1 396.450,452.321 L370.531,428.801 A850.000,850.000 0.000 0,0 196.637,722.316 Z" style="stroke-width:1.0;stroke:rgb(0,0,0);stroke-linecap:round;fill:rgb(46,46,230);" />
<text x="251.9" y="570.2" font-size="31.2px" font-family="CMUBright-Roman" style="text-anchor:end;fill:rgb(0,0,0);" transform="rotate(30.6,251.9,570.2)" >UEL</text>
<path d="M229.717,733.750 A815.000,815.000 40.000 0,1 396.450,452.321 L370.531,428.801 A850.000,850.000 0.000 0,0 196.637,722.316 Z" style="stroke-width:1.0;stroke:rgb(0,0,0);stroke-linecap:round;fill:none;" />
<g id="highlighttrack_3">
<path d="M631.297,296.588 A794.185,794.185 40.000 0,1 682.354,272.105 L678.354,262.940 A804.185,804.185 0.000 0,0 626.654,287.731 Z" style="stroke-width:1.0;stroke:rgb(0,0,0);stroke-linecap:round;fill:rgb(46,168,230);" />
<path d="M582.114,324.648 A794.185,794.185 40.000 0,1 631.297,296.588 L626.654,287.731 A804.185,804.185 0.000 0,0 576.852,316.144 Z" style="stroke-width:1.0;stroke:rgb(0,0,0);stroke-linecap:round;fill:rgb(46,230,230);" />
<path d="M550.490,345.270 A794.185,794.185 40.000 0,1 582.114,324.648 L576.852,316.144 A804.185,804.185 0.000 0,0 544.830,337.026 Z" style="stroke-width:1.0;stroke:rgb(0,0,0);stroke-linecap:round;fill:rgb(46,230,107);" />
<path d="M519.883,367.373 A794.185,794.185 40.000 0,1 550.490,345.270 L544.830,337.026 A804.185,804.185 0.000 0,0 513.837,359.407 Z" style="stroke-width:1.0;stroke:rgb(0,0,0);stroke-linecap:round;fill:rgb(230,230,46);" />
<path d="M490.360,390.905 A794.185,794.185 40.000 0,1 519.883,367.373 L513.837,359.407 A804.185,804.185 0.000 0,0 483.943,383.236 Z" style="stroke-width:1.0;stroke:rgb(0,0,0);stroke-linecap:round;fill:rgb(230,46,46);" />
<path d="M476.026,403.191 A794.185,794.185 40.000 0,1 490.360,390.905 L483.943,383.236 A804.185,804.185 0.000 0,0 469.429,395.676 Z" style="stroke-width:1.0;stroke:rgb(0,0,0);stroke-linecap:round;fill:rgb(230,107,46);" />
<path d="M448.255,428.766 A794.185,794.185 40.000 0,1 476.026,403.191 L469.429,395.676 A804.185,804.185 0.000 0,0 441.308,421.574 Z" style="stroke-width:1.0;stroke:rgb(0,0,0);stroke-linecap:round;fill:rgb(46,230,46);" />
<path d="M434.834,442.042 A794.185,794.185 40.000 0,1 448.255,428.766 L441.308,421.574 A804.185,804.185 0.000 0,0 427.717,435.017 Z" style="stroke-width:1.0;stroke:rgb(0,0,0);stroke-linecap:round;fill:rgb(230,46,230);" />
</g>
<path d="M420.021,427.419 A815.000,815.000 40.000 0,1 674.029,253.028 L660.030,220.949 A850.000,850.000 0.000 0,0 395.114,402.829 Z" style="stroke-width:1.0;stroke:rgb(0,0,0);stroke-linecap:round;fill:rgb(107,230,46);" />
<text x="501.8" y="295.6" font-size="31.2px" font-family="CMUBright-Roman" style="text-anchor:end;fill:rgb(0,0,0);" transform="rotate(55.5,501.8,295.6)" >IC</text>
<path d="M420.021,427.419 A815.000,815.000 40.000 0,1 674.029,253.028 L660.030,220.949 A850.000,850.000 0.000 0,0 395.114,402.829 Z" style="stroke-width:1.0;stroke:rgb(0,0,0);stroke-linecap:round;fill:none;" />
<g id="highlighttrack_3">
<path d="M877.030,215.393 A794.185,794.185 40.000 0,1 914.457,210.435 L913.380,200.494 A804.185,804.185 0.000 0,0 875.482,205.514 Z" style="stroke-width:1.0;stroke:rgb(0,0,0);stroke-linecap:round;fill:rgb(46,230,230);" />
<path d="M803.094,230.612 A794.185,794.185 40.000 0,1 877.030,215.393 L875.482,205.514 A804.185,804.185 0.000 0,0 800.615,220.924 Z" style="stroke-width:1.0;stroke:rgb(0,0,0);stroke-linecap:round;fill:rgb(230,168,46);" />
<path d="M784.862,235.510 A794.185,794.185 40.000 0,1 803.094,230.612 L800.615,220.924 A804.185,804.185 0.000 0,0 782.153,225.884 Z" style="stroke-width:1.0;stroke:rgb(0,0,0);stroke-linecap:round;fill:rgb(46,230,107);" />
<path d="M766.752,240.839 A794.185,794.185 40.000 0,1 784.862,235.510 L782.153,225.884 A804.185,804.185 0.000 0,0 763.815,231.280 Z" style="stroke-width:1.0;stroke:rgb(0,0,0);stroke-linecap:round;fill:rgb(230,230,46);" />
<path d="M748.773,246.598 A794.185,794.185 40.000 0,1 766.752,240.839 L763.815,231.280 A804.185,804.185 0.000 0,0 745.610,237.111 Z" style="stroke-width:1.0;stroke:rgb(0,0,0);stroke-linecap:round;fill:rgb(230,46,46);" />
<path d="M730.937,252.782 A794.185,794.185 40.000 0,1 748.773,246.598 L745.610,237.111 A804.185,804.185 0.000 0,0 727.549,243.373 Z" style="stroke-width:1.0;stroke:rgb(0,0,0);stroke-linecap:round;fill:rgb(230,107,46);" />
<path d="M713.252,259.388 A794.185,794.185 40.000 0,1 730.937,252.782 L727.549,243.373 A804.185,804.185 0.000 0,0 709.642,250.063 Z" style="stroke-width:1.0;stroke:rgb(0,0,0);stroke-linecap:round;fill:rgb(230,46,230);" />
</g>
<path d="M705.737,239.978 A815.000,815.000 40.000 0,1 912.215,189.742 L908.445,154.945 A850.000,850.000 0.000 0,0 693.100,207.339 Z" style="stroke-width:1.0;stroke:rgb(0,0,0);stroke-linecap:round;fill:rgb(168,230,46);" />
<text x="784.4" y="164.6" font-size="31.2px" font-family="CMUBright-Roman" style="text-anchor:end;fill:rgb(0,0,0);" transform="rotate(76.3,784.4,164.6)" >CWC</text>
<path d="M705.737,239.978 A815.000,815.000 40.000 0,1 912.215,189.742 L908.445,154.945 A850.000,850.000 0.000 0,0 693.100,207.339 Z" style="stroke-width:1.0;stroke:rgb(0,0,0);stroke-linecap:round;fill:none;" />
<g id="highlighttrack_3">
<path d="M947.744,207.536 A794.185,794.185 40.000 0,1 966.595,206.518 L966.174,196.527 A804.185,804.185 0.000 0,0 947.086,197.558 Z" style="stroke-width:1.0;stroke:rgb(0,0,0);stroke-linecap:round;fill:rgb(46,230,107);" />
</g>
<path d="M946.374,186.766 A815.000,815.000 40.000 0,1 965.719,185.721 L964.247,150.752 A850.000,850.000 0.000 0,0 944.071,151.842 Z" style="stroke-width:1.0;stroke:rgb(0,0,0);stroke-linecap:round;fill:rgb(107,46,230);" />
<text x="941.5" y="139.2" font-size="31.2px" font-family="CMUBright-Roman" style="text-anchor:end;fill:rgb(0,0,0);" transform="rotate(86.9,941.5,139.2)" >UIC</text>
<path d="M946.374,186.766 A815.000,815.000 40.000 0,1 965.719,185.721 L964.247,150.752 A850.000,850.000 0.000 0,0 944.071,151.842 Z" style="stroke-width:1.0;stroke:rgb(0,0,0);stroke-linecap:round;fill:none;" />
</g>
<g id="flow">
<path d="M 1796.019,1114.310 A 804.185,804.185 0.00 0,1 1793.1,1133.2 L 1793.1,1133.2 1766.1,1127.7 1738.5,1120.4 1710.3,1111.2 1681.5,1100.4 1652.3,1087.9 1622.5,1073.9 1592.3,1058.4 1561.8,1041.6 1530.9,1023.5 1499.8,1004.2 1468.5,983.8 1437.1,962.4 1405.6,940.0 1374.0,916.7 1342.5,892.6 1311.1,867.8 1279.8,842.4 1248.8,816.3 1218.1,789.8 1187.8,762.7 1157.9,735.3 1128.5,707.5 1099.7,679.5 1071.6,651.2 1044.2,622.8 1017.7,594.2 992.0,565.7 967.3,537.1 943.7,508.5 921.2,480.1 900.0,451.8 880.0,423.7 861.5,395.8 844.4,368.2 829.0,340.9 815.2,313.9 803.2,287.4 793.0,261.2 784.9,235.5  A 794.185,794.185 0.00 0,1 803.1,230.6 L 803.1,230.6 810.5,256.0 820.0,281.8 831.3,308.1 844.5,334.8 859.3,361.9 875.7,389.3 893.7,416.9 913.1,444.8 933.8,472.9 955.8,501.2 978.9,529.5 1003.2,557.9 1028.4,586.3 1054.6,614.6 1081.6,642.8 1109.3,670.9 1137.8,698.7 1166.8,726.2 1196.4,753.4 1226.4,780.2 1256.8,806.5 1287.6,832.2 1318.6,857.3 1349.7,881.8 1381.0,905.5 1412.3,928.3 1443.6,950.3 1474.8,971.3 1505.9,991.2 1536.7,1010.0 1567.3,1027.6 1597.6,1043.9 1627.5,1058.8 1657.0,1072.3 1686.0,1084.1 1714.4,1094.4 1742.3,1102.9 1769.5,1109.6 1796.0,1114.3  Z" style="stroke-width: 1.0;  stroke: rgb(0,0,0); fill: rgb(46,230,107); opacity: 0.833;" />
<path d="M 1798.511,1095.357 A 804.185,804.185 0.00 0,1 1796.0,1114.3 L 1796.0,1114.3 1771.5,1109.8 1746.3,1103.2 1720.6,1094.8 1694.4,1084.4 1667.8,1072.4 1640.7,1058.6 1613.3,1043.3 1585.7,1026.6 1557.8,1008.4 1529.7,988.9 1501.6,968.2 1473.4,946.4 1445.3,923.5 1417.2,899.6 1389.3,874.8 1361.6,849.3 1334.1,823.0 1307.1,796.0 1280.4,768.5 1254.2,740.4 1228.6,712.0 1203.6,683.2 1179.3,654.1 1155.8,624.8 1133.1,595.4 1111.3,565.9 1090.6,536.5 1070.9,507.1 1052.3,477.9 1035.0,448.8 1019.0,420.1 1004.4,391.7 991.2,363.7 979.6,336.1 969.6,309.1 961.4,282.7 954.9,256.9 950.3,231.8 947.7,207.5  A 794.185,794.185 0.00 0,1 966.6,206.5 L 966.6,206.5 968.6,230.4 972.6,255.0 978.4,280.4 986.1,306.4 995.5,333.1 1006.5,360.3 1019.1,387.9 1033.2,416.0 1048.7,444.4 1065.5,473.1 1083.5,502.0 1102.7,531.1 1123.0,560.2 1144.3,589.3 1166.5,618.4 1189.6,647.3 1213.4,676.0 1238.0,704.4 1263.3,732.4 1289.1,760.0 1315.3,787.1 1342.1,813.6 1369.2,839.5 1396.5,864.6 1424.1,888.8 1451.9,912.2 1479.8,934.6 1507.6,955.9 1535.5,976.0 1563.2,995.0 1590.8,1012.5 1618.2,1028.7 1645.3,1043.4 1672.0,1056.6 1698.4,1068.0 1724.2,1077.7 1749.6,1085.6 1774.4,1091.5 1798.5,1095.4  Z" style="stroke-width: 1.0;  stroke: rgb(0,0,0); fill: rgb(46,230,107); opacity: 0.833;" />
<path d="M 1708.144,1381.112 A 804.185,804.185 0.00 0,1 1698.9,1397.8 L 1698.9,1397.8 1663.2,1377.5 1627.5,1357.1 1591.8,1336.7 1556.1,1316.3 1520.4,1295.9 1484.7,1275.4 1448.9,1255.0 1413.2,1234.5 1377.5,1214.0 1341.8,1193.5 1306.0,1173.0 1270.3,1152.5 1234.6,1132.0 1198.9,1111.5 1163.2,1091.1 1127.5,1070.6 1091.8,1050.2 1056.2,1029.7 1020.5,1009.3 984.9,988.9 949.3,968.5 913.6,948.1 878.1,927.7 842.5,907.3 806.9,887.0 771.4,866.7 735.9,846.4 700.4,826.1 664.9,805.8 629.5,785.5 594.1,765.3 558.7,745.0 523.4,724.8 488.0,704.5 452.8,684.3 417.5,664.1 382.3,643.8 347.1,623.6 312.0,603.3  A 794.185,794.185 0.00 0,1 321.6,587.1 L 321.6,587.1 355.8,607.9 390.2,628.6 424.7,649.3 459.4,670.0 494.2,690.7 529.1,711.4 564.1,732.0 599.2,752.6 634.4,773.2 669.7,793.9 705.0,814.5 740.5,835.1 776.0,855.6 811.6,876.2 847.2,896.8 882.9,917.4 918.7,938.0 954.5,958.5 990.3,979.1 1026.2,999.6 1062.1,1020.1 1098.0,1040.7 1133.9,1061.1 1169.9,1081.6 1205.9,1102.0 1241.8,1122.4 1277.8,1142.7 1313.8,1163.0 1349.7,1183.3 1385.7,1203.5 1421.6,1223.6 1457.5,1243.6 1493.4,1263.6 1529.3,1283.5 1565.1,1303.2 1600.9,1322.9 1636.7,1342.4 1672.4,1361.8 1708.1,1381.1  Z" style="stroke-width: 1.0;  stroke: rgb(0,0,0); fill: rgb(230,230,46); opacity: 0.833;" />
<path d="M 1733.499,1329.686 A 804.185,804.185 0.00 0,1 1725.5,1347.0 L 1725.5,1347.0 1697.8,1333.0 1669.9,1317.2 1641.8,1299.9 1613.5,1281.0 1585.0,1260.8 1556.3,1239.2 1527.5,1216.4 1498.6,1192.4 1469.6,1167.3 1440.5,1141.2 1411.4,1114.2 1382.3,1086.4 1353.2,1057.8 1324.1,1028.5 1295.2,998.6 1266.4,968.1 1237.8,937.1 1209.5,905.7 1181.4,874.0 1153.6,841.9 1126.2,809.6 1099.2,777.1 1072.7,744.4 1046.7,711.7 1021.4,678.9 996.7,646.2 972.7,613.5 949.5,581.0 927.1,548.5 905.7,516.3 885.2,484.3 865.9,452.6 847.6,421.2 830.6,390.1 814.9,359.4 800.6,329.1 787.7,299.2 776.4,269.8 766.8,240.8  A 794.185,794.185 0.00 0,1 784.9,235.5 L 784.9,235.5 793.7,264.1 804.3,293.3 816.4,322.9 830.1,352.9 845.2,383.4 861.6,414.3 879.3,445.6 898.2,477.1 918.2,509.0 939.2,541.1 961.2,573.4 984.1,605.9 1007.8,638.4 1032.2,671.1 1057.3,703.7 1083.1,736.4 1109.4,768.9 1136.2,801.3 1163.5,833.5 1191.2,865.4 1219.1,897.0 1247.4,928.2 1276.0,959.0 1304.7,989.2 1333.5,1018.9 1362.5,1047.9 1391.6,1076.2 1420.6,1103.6 1449.7,1130.2 1478.7,1155.9 1507.7,1180.5 1536.5,1203.9 1565.2,1226.2 1593.8,1247.2 1622.2,1266.8 1650.4,1285.0 1678.3,1301.6 1706.0,1316.5 1733.5,1329.7  Z" style="stroke-width: 1.0;  stroke: rgb(0,0,0); fill: rgb(230,230,46); opacity: 0.833;" />
<path d="M 1698.885,1397.836 A 804.185,804.185 0.00 0,1 1689.2,1414.3 L 1689.2,1414.3 1661.3,1398.3 1631.9,1382.9 1601.1,1368.1 1569.1,1353.9 1535.9,1340.2 1501.6,1327.0 1466.2,1314.3 1429.9,1302.0 1392.7,1290.2 1354.7,1278.8 1316.0,1267.8 1276.6,1257.2 1236.7,1246.9 1196.2,1237.1 1155.3,1227.5 1114.0,1218.4 1072.4,1209.6 1030.6,1201.2 988.7,1193.1 946.7,1185.4 904.6,1178.2 862.6,1171.3 820.7,1164.9 779.0,1158.9 737.6,1153.4 696.4,1148.4 655.7,1143.9 615.4,1140.0 575.6,1136.6 536.4,1134.0 497.8,1131.9 459.9,1130.6 422.8,1130.1 386.5,1130.4 351.0,1131.5 316.5,1133.6 283.1,1136.6 250.6,1140.7 219.3,1145.9  A 794.185,794.185 0.00 0,1 216.1,1127.3 L 216.1,1127.3 248.1,1122.7 281.1,1119.2 315.2,1116.7 350.1,1115.1 386.0,1114.5 422.7,1114.6 460.2,1115.5 498.4,1117.2 537.2,1119.5 576.7,1122.5 616.7,1126.1 657.2,1130.3 698.1,1134.9 739.3,1140.1 780.9,1145.8 822.7,1151.9 864.7,1158.4 906.8,1165.3 948.9,1172.6 991.1,1180.3 1033.1,1188.3 1075.0,1196.7 1116.7,1205.5 1158.1,1214.5 1199.2,1223.9 1239.9,1233.7 1280.1,1243.8 1319.7,1254.3 1358.7,1265.1 1397.0,1276.3 1434.6,1287.9 1471.3,1299.9 1507.1,1312.4 1541.9,1325.3 1575.7,1338.7 1608.4,1352.6 1639.9,1367.1 1670.0,1382.1 1698.9,1397.8  Z" style="stroke-width: 1.0;  stroke: rgb(0,0,0); fill: rgb(230,230,46); opacity: 0.833;" />
<path d="M 1575.363,1561.846 A 804.185,804.185 0.00 0,1 1561.8,1575.4 L 1561.8,1575.4 1535.4,1548.7 1508.2,1522.1 1480.3,1495.5 1451.8,1469.0 1422.7,1442.5 1393.0,1416.0 1362.7,1389.5 1332.0,1363.0 1300.8,1336.6 1269.2,1310.2 1237.3,1283.8 1205.0,1257.5 1172.4,1231.2 1139.6,1204.9 1106.5,1178.7 1073.2,1152.6 1039.7,1126.6 1006.1,1100.6 972.3,1074.8 938.5,1049.1 904.5,1023.6 870.6,998.2 836.6,973.1 802.6,948.1 768.6,923.4 734.7,899.0 700.8,874.8 667.0,851.0 633.2,827.5 599.6,804.4 566.0,781.8 532.6,759.5 499.3,737.8 466.2,716.6 433.2,696.0 400.3,675.9 367.6,656.5 335.1,637.8 302.7,619.8  A 794.185,794.185 0.00 0,1 312.0,603.3 L 312.0,603.3 344.4,622.3 377.0,642.0 409.8,662.2 442.6,683.0 475.6,704.2 508.7,726.0 541.9,748.2 575.3,770.8 608.7,793.8 642.2,817.2 675.8,840.9 709.5,864.9 743.2,889.2 777.0,913.7 810.8,938.4 844.7,963.4 878.5,988.5 912.3,1013.8 946.1,1039.2 979.8,1064.8 1013.4,1090.5 1046.9,1116.3 1080.4,1142.2 1113.6,1168.1 1146.7,1194.1 1179.6,1220.2 1212.3,1246.3 1244.7,1272.5 1276.8,1298.6 1308.6,1324.8 1340.1,1351.1 1371.2,1377.3 1401.9,1403.6 1432.1,1429.9 1461.9,1456.2 1491.1,1482.6 1519.8,1509.0 1547.9,1535.4 1575.4,1561.8  Z" style="stroke-width: 1.0;  stroke: rgb(0,0,0); fill: rgb(230,46,46); opacity: 0.833;" />
<path d="M 1613.934,1519.422 A 804.185,804.185 0.00 0,1 1601.4,1533.9 L 1601.4,1533.9 1575.8,1510.4 1550.2,1485.8 1524.7,1460.0 1499.3,1433.1 1473.9,1405.2 1448.6,1376.4 1423.3,1346.8 1398.1,1316.3 1372.9,1285.0 1347.9,1253.1 1322.8,1220.6 1297.9,1187.4 1273.1,1153.8 1248.3,1119.7 1223.7,1085.2 1199.2,1050.4 1174.9,1015.2 1150.8,979.8 1126.8,944.2 1103.1,908.4 1079.7,872.5 1056.6,836.5 1033.8,800.5 1011.3,764.5 989.3,728.5 967.7,692.6 946.5,656.8 925.9,621.2 905.9,585.7 886.5,550.5 867.8,515.5 849.8,480.7 832.5,446.2 816.1,412.0 800.6,378.2 786.1,344.7 772.5,311.6 760.1,278.9 748.8,246.6  A 794.185,794.185 0.00 0,1 766.8,240.8 L 766.8,240.8 777.1,272.8 788.8,305.3 801.6,338.2 815.4,371.4 830.3,405.1 846.2,439.2 862.9,473.5 880.5,508.2 898.8,543.2 917.9,578.4 937.7,613.9 958.0,649.5 978.9,685.3 1000.4,721.3 1022.3,757.3 1044.6,793.3 1067.4,829.4 1090.5,865.4 1113.9,901.3 1137.6,937.1 1161.6,972.7 1185.8,1008.0 1210.1,1043.1 1234.7,1077.9 1259.4,1112.3 1284.2,1146.2 1309.2,1179.7 1334.2,1212.6 1359.4,1244.8 1384.6,1276.4 1409.8,1307.3 1435.2,1337.4 1460.5,1366.5 1486.0,1394.8 1511.4,1422.0 1537.0,1448.2 1562.6,1473.2 1588.2,1497.0 1613.9,1519.4  Z" style="stroke-width: 1.0;  stroke: rgb(0,0,0); fill: rgb(230,46,46); opacity: 0.833;" />
<path d="M 1446.622,1668.762 A 804.185,804.185 0.00 0,1 1430.6,1679.2 L 1430.6,1679.2 1410.2,1646.5 1389.9,1613.4 1369.7,1579.7 1349.7,1545.5 1329.8,1510.9 1310.0,1475.8 1290.2,1440.4 1270.6,1404.7 1251.1,1368.6 1231.6,1332.2 1212.3,1295.6 1193.0,1258.7 1173.7,1221.6 1154.6,1184.4 1135.5,1146.9 1116.6,1109.4 1097.7,1071.7 1078.9,1033.9 1060.2,996.1 1041.6,958.2 1023.1,920.3 1004.8,882.4 986.6,844.5 968.6,806.7 950.8,768.8 933.1,731.1 915.7,693.4 898.5,655.9 881.5,618.4 864.8,581.1 848.4,543.9 832.3,506.9 816.6,470.0 801.2,433.3 786.3,396.8 771.7,360.5 757.6,324.4 744.0,288.5 730.9,252.8  A 794.185,794.185 0.00 0,1 748.8,246.6 L 748.8,246.6 760.9,282.0 773.6,317.7 786.9,353.6 800.7,389.8 815.0,426.2 829.9,462.9 845.1,499.7 860.8,536.8 876.9,574.0 893.3,611.4 910.0,649.0 927.0,686.7 944.3,724.5 961.9,762.4 979.6,800.4 997.6,838.4 1015.8,876.5 1034.2,914.6 1052.7,952.7 1071.4,990.7 1090.2,1028.7 1109.1,1066.6 1128.1,1104.4 1147.3,1142.0 1166.5,1179.5 1185.9,1216.8 1205.3,1253.9 1224.8,1290.7 1244.4,1327.2 1264.1,1363.4 1284.0,1399.2 1303.9,1434.6 1323.9,1469.6 1344.0,1504.2 1364.2,1538.3 1384.6,1571.8 1405.1,1604.7 1425.8,1637.1 1446.6,1668.8  Z" style="stroke-width: 1.0;  stroke: rgb(0,0,0); fill: rgb(230,107,46); opacity: 0.833;" />
<path d="M 1430.600,1679.188 A 804.185,804.185 0.00 0,1 1414.3,1689.2 L 1414.3,1689.2 1394.1,1655.9 1373.4,1622.4 1352.2,1588.9 1330.7,1555.3 1308.8,1521.6 1286.6,1487.8 1264.0,1454.0 1241.2,1420.0 1218.1,1386.1 1194.7,1352.0 1171.1,1318.0 1147.4,1283.9 1123.4,1249.8 1099.3,1215.6 1075.0,1181.5 1050.7,1147.4 1026.1,1113.3 1001.5,1079.2 976.9,1045.2 952.1,1011.3 927.3,977.4 902.4,943.7 877.5,910.0 852.5,876.5 827.5,843.2 802.5,810.0 777.5,777.0 752.5,744.2 727.4,711.6 702.4,679.2 677.3,647.2 652.2,615.4 627.1,584.0 602.0,552.8 576.9,522.1 551.7,491.7 526.5,461.8 501.3,432.2 476.0,403.2  A 794.185,794.185 0.00 0,1 490.4,390.9 L 490.4,390.9 515.3,421.0 540.3,451.4 565.2,482.1 590.1,513.2 615.0,544.5 639.8,576.1 664.7,608.0 689.5,640.1 714.3,672.4 739.2,704.9 764.0,737.6 788.8,770.5 813.6,803.5 838.4,836.7 863.1,870.0 887.9,903.4 912.6,936.9 937.3,970.5 962.0,1004.2 986.6,1037.9 1011.2,1071.7 1035.7,1105.6 1060.2,1139.4 1084.5,1173.3 1108.8,1207.2 1133.0,1241.2 1157.0,1275.1 1181.0,1308.9 1204.7,1342.8 1228.3,1376.7 1251.8,1410.5 1275.0,1444.3 1298.0,1478.0 1320.8,1511.7 1343.4,1545.3 1365.7,1578.9 1387.6,1612.4 1409.3,1645.8 1430.6,1679.2  Z" style="stroke-width: 1.0;  stroke: rgb(0,0,0); fill: rgb(230,107,46); opacity: 0.833;" />
<path d="M 1061.685,1801.816 A 804.185,804.185 0.00 0,1 1042.6,1803.1 L 1042.6,1803.1 1040.3,1776.3 1036.0,1748.7 1030.1,1720.2 1022.4,1691.1 1013.1,1661.2 1002.4,1630.8 990.2,1599.8 976.6,1568.2 961.8,1536.3 945.8,1504.0 928.6,1471.4 910.5,1438.5 891.3,1405.5 871.3,1372.4 850.4,1339.2 828.8,1306.1 806.5,1273.2 783.5,1240.4 760.0,1207.9 735.9,1175.7 711.4,1144.0 686.5,1112.7 661.3,1082.0 635.7,1052.0 610.0,1022.8 584.0,994.4 557.9,966.9 531.8,940.3 505.5,914.9 479.3,890.7 453.1,867.7 427.0,846.1 401.0,825.9 375.2,807.3 349.5,790.3 324.1,775.0 298.9,761.6 274.0,750.0 249.4,740.6  A 794.185,794.185 0.00 0,1 255.8,722.8 L 255.8,722.8 280.6,733.0 305.8,745.3 331.2,759.4 356.8,775.3 382.7,793.0 408.7,812.2 434.9,833.0 461.1,855.2 487.5,878.7 513.9,903.5 540.3,929.4 566.6,956.4 592.8,984.3 619.0,1013.2 644.9,1042.8 670.6,1073.2 696.1,1104.3 721.2,1135.9 745.9,1167.9 770.2,1200.4 794.0,1233.3 817.3,1266.3 839.9,1299.6 861.9,1333.0 883.1,1366.4 903.5,1399.8 923.0,1433.1 941.6,1466.2 959.2,1499.1 975.7,1531.7 991.0,1564.0 1005.0,1595.8 1017.8,1627.1 1029.1,1657.9 1038.9,1688.1 1047.2,1717.7 1053.8,1746.5 1058.7,1774.6 1061.7,1801.8  Z" style="stroke-width: 1.0;  stroke: rgb(0,0,0); fill: rgb(230,46,230); opacity: 0.833;" />
<path d="M 1099.721,1797.978 A 804.185,804.185 0.00 0,1 1080.7,1800.1 L 1080.7,1800.1 1076.7,1762.4 1072.0,1724.4 1066.9,1685.9 1061.3,1647.1 1055.2,1608.0 1048.8,1568.5 1041.9,1528.8 1034.7,1488.8 1027.2,1448.5 1019.3,1408.1 1011.2,1367.4 1002.9,1326.6 994.2,1285.7 985.4,1244.6 976.4,1203.4 967.2,1162.2 957.8,1121.0 948.3,1079.7 938.6,1038.4 928.7,997.2 918.8,956.0 908.7,915.0 898.4,874.0 888.1,833.2 877.6,792.6 867.0,752.2 856.2,712.0 845.4,672.1 834.3,632.5 823.1,593.2 811.8,554.3 800.3,515.8 788.6,477.6 776.6,440.0 764.5,402.8 752.1,366.1 739.4,329.9 726.5,294.4 713.3,259.4  A 794.185,794.185 0.00 0,1 730.9,252.8 L 730.9,252.8 743.6,288.6 756.0,324.9 768.1,361.7 780.1,398.9 791.8,436.6 803.3,474.7 814.7,513.1 825.9,551.9 836.9,591.0 847.8,630.4 858.6,670.1 869.3,710.0 879.8,750.2 890.2,790.5 900.6,831.0 910.8,871.7 920.9,912.5 930.9,953.4 940.8,994.4 950.6,1035.4 960.3,1076.5 969.9,1117.6 979.3,1158.7 988.6,1199.7 997.7,1240.7 1006.7,1281.7 1015.5,1322.5 1024.1,1363.2 1032.4,1403.8 1040.6,1444.3 1048.5,1484.5 1056.1,1524.6 1063.4,1564.4 1070.4,1604.1 1077.1,1643.4 1083.4,1682.5 1089.3,1721.3 1094.7,1759.8 1099.7,1798.0  Z" style="stroke-width: 1.0;  stroke: rgb(0,0,0); fill: rgb(230,46,230); opacity: 0.833;" />
<path d="M 1042.610,1803.055 A 804.185,804.185 0.00 0,1 1023.5,1803.8 L 1023.5,1803.8 1022.0,1783.8 1018.5,1763.2 1013.2,1742.1 1006.1,1720.7 997.4,1699.1 987.0,1677.2 975.1,1655.2 961.6,1633.1 946.8,1611.0 930.7,1589.0 913.3,1567.2 894.8,1545.5 875.1,1524.1 854.4,1503.1 832.8,1482.5 810.4,1462.3 787.1,1442.7 763.2,1423.6 738.6,1405.2 713.5,1387.5 687.9,1370.6 662.0,1354.5 635.8,1339.2 609.3,1324.9 582.8,1311.6 556.2,1299.3 529.7,1288.1 503.3,1278.1 477.1,1269.2 451.3,1261.5 425.9,1255.1 400.9,1250.1 376.6,1246.4 352.9,1244.1 330.0,1243.3 308.0,1244.0 286.9,1246.2 266.9,1250.0 248.0,1255.3  A 794.185,794.185 0.00 0,1 242.1,1237.4 L 242.1,1237.4 261.5,1232.3 282.1,1229.0 303.6,1227.2 326.2,1226.9 349.6,1228.2 373.8,1231.0 398.7,1235.2 424.2,1240.8 450.2,1247.7 476.7,1255.9 503.4,1265.3 530.4,1275.9 557.6,1287.7 584.8,1300.5 612.0,1314.4 639.1,1329.2 666.0,1345.0 692.6,1361.6 718.9,1379.0 744.7,1397.2 770.0,1416.1 794.7,1435.6 818.7,1455.7 841.9,1476.3 864.2,1497.3 885.6,1518.8 906.0,1540.5 925.3,1562.6 943.4,1584.8 960.3,1607.2 975.8,1629.6 989.9,1652.0 1002.5,1674.4 1013.6,1696.6 1023.0,1718.6 1030.6,1740.3 1036.5,1761.7 1040.5,1782.6 1042.6,1803.1  Z" style="stroke-width: 1.0;  stroke: rgb(0,0,0); fill: rgb(230,46,230); opacity: 0.833;" />
<path d="M 1080.726,1800.123 A 804.185,804.185 0.00 0,1 1061.7,1801.8 L 1061.7,1801.8 1058.5,1769.6 1054.1,1736.6 1048.3,1702.8 1041.4,1668.4 1033.4,1633.2 1024.4,1597.5 1014.3,1561.2 1003.4,1524.4 991.6,1487.2 979.0,1449.5 965.6,1411.5 951.6,1373.1 937.0,1334.5 921.7,1295.7 906.0,1256.7 889.7,1217.7 872.9,1178.6 855.8,1139.5 838.2,1100.5 820.3,1061.7 802.1,1023.1 783.5,984.8 764.7,946.8 745.6,909.2 726.3,872.0 706.8,835.5 687.0,799.5 667.1,764.2 647.0,729.6 626.6,695.9 606.1,663.1 585.4,631.2 564.5,600.4 543.5,570.8 522.2,542.3 500.7,515.1 479.0,489.3 457.0,464.9 434.8,442.0  A 794.185,794.185 0.00 0,1 448.3,428.8 L 448.3,428.8 470.3,452.5 492.2,477.8 513.8,504.3 535.1,532.2 556.3,561.3 577.2,591.6 598.0,622.9 618.6,655.2 639.0,688.4 659.2,722.5 679.2,757.3 699.1,792.9 718.7,829.1 738.2,865.9 757.5,903.2 776.5,940.9 795.3,979.1 813.9,1017.5 832.1,1056.2 850.1,1095.1 867.7,1134.1 884.9,1173.3 901.8,1212.4 918.2,1251.5 934.2,1290.6 949.6,1329.5 964.5,1368.2 978.8,1406.6 992.4,1444.8 1005.4,1482.6 1017.6,1520.0 1029.0,1557.0 1039.5,1593.6 1049.1,1629.6 1057.7,1665.0 1065.2,1699.8 1071.6,1733.9 1076.8,1767.4 1080.7,1800.1  Z" style="stroke-width: 1.0;  stroke: rgb(0,0,0); fill: rgb(230,46,230); opacity: 0.833;" />
<path d="M 1057.301,197.859 A 804.185,804.185 0.00 0,1 1095.4,201.5 L 1095.4,201.5 1092.4,219.3 1087.7,237.3 1081.3,255.4 1073.4,273.4 1064.0,291.4 1053.2,309.2 1041.0,326.8 1027.5,344.2 1012.7,361.1 996.8,377.7 979.8,393.7 961.8,409.3 942.9,424.3 923.1,438.6 902.5,452.3 881.2,465.2 859.2,477.3 836.8,488.7 813.8,499.2 790.4,508.8 766.8,517.5 742.9,525.2 718.8,532.0 694.7,537.7 670.7,542.5 646.7,546.2 623.0,548.8 599.5,550.4 576.4,550.8 553.8,550.2 531.8,548.5 510.4,545.6 489.8,541.7 470.0,536.6 451.1,530.4 433.3,523.2 416.7,514.8 401.3,505.4 387.2,494.9  A 794.185,794.185 0.00 0,1 411.9,466.3 L 411.9,466.3 424.9,477.1 439.3,486.9 454.8,495.7 471.4,503.6 488.9,510.3 507.3,516.1 526.5,520.7 546.4,524.3 566.9,526.8 587.8,528.3 609.3,528.6 631.0,527.9 653.0,526.1 675.1,523.3 697.4,519.4 719.6,514.5 741.7,508.6 763.7,501.6 785.4,493.7 806.9,484.9 827.9,475.2 848.4,464.5 868.4,453.1 887.7,440.8 906.4,427.8 924.3,414.1 941.4,399.8 957.5,384.8 972.7,369.2 986.9,353.2 1000.0,336.8 1011.8,319.9 1022.5,302.8 1031.9,285.4 1039.9,267.9 1046.5,250.3 1051.6,232.7 1055.3,215.2 1057.3,197.9  Z" style="stroke-width: 1.0;  stroke: rgb(0,0,0); fill: rgb(46,168,230); opacity: 0.833;" />
<path d="M 1430.600,320.812 A 804.185,804.185 0.00 0,1 1462.4,342.0 L 1462.4,342.0 1452.2,355.3 1440.8,367.9 1428.3,379.7 1414.7,390.9 1400.1,401.2 1384.7,410.7 1368.4,419.3 1351.4,427.1 1333.8,433.9 1315.6,439.7 1296.9,444.6 1277.8,448.4 1258.4,451.3 1238.8,453.1 1219.0,453.9 1199.1,453.7 1179.2,452.5 1159.4,450.2 1139.6,446.9 1120.1,442.6 1100.9,437.3 1082.0,431.1 1063.5,423.9 1045.5,415.8 1028.1,406.8 1011.2,397.0 995.1,386.3 979.7,374.9 965.1,362.8 951.4,350.0 938.6,336.7 926.8,322.7 916.0,308.3 906.4,293.4 898.0,278.2 890.8,262.7 884.8,247.0 880.2,231.2 877.0,215.4  A 794.185,794.185 0.00 0,1 914.5,210.4 L 914.5,210.4 916.8,225.9 920.3,241.4 925.1,256.8 931.0,272.0 938.1,287.0 946.2,301.5 955.3,315.7 965.3,329.3 976.3,342.4 988.1,354.8 1000.8,366.6 1014.2,377.6 1028.2,387.9 1042.9,397.3 1058.2,405.9 1074.0,413.5 1090.3,420.3 1107.0,426.0 1124.0,430.8 1141.2,434.6 1158.7,437.3 1176.4,439.0 1194.1,439.7 1211.8,439.4 1229.5,438.0 1247.0,435.6 1264.4,432.1 1281.4,427.7 1298.2,422.2 1314.5,415.8 1330.4,408.5 1345.7,400.3 1360.3,391.2 1374.3,381.2 1387.5,370.5 1399.7,359.0 1411.1,346.9 1421.4,334.1 1430.6,320.8  Z" style="stroke-width: 1.0;  stroke: rgb(0,0,0); fill: rgb(46,230,230); opacity: 0.833;" />
<path d="M 1760.062,1262.717 A 804.185,804.185 0.00 0,1 1746.7,1298.5 L 1746.7,1298.5 1724.6,1290.8 1701.0,1284.6 1676.0,1279.8 1649.7,1276.4 1622.2,1274.5 1593.7,1273.8 1564.0,1274.5 1533.5,1276.3 1502.2,1279.4 1470.1,1283.5 1437.4,1288.8 1404.2,1295.1 1370.5,1302.5 1336.5,1310.8 1302.3,1320.0 1267.9,1330.1 1233.4,1341.0 1199.0,1352.7 1164.8,1365.2 1130.7,1378.4 1097.1,1392.3 1063.8,1406.8 1031.1,1421.9 999.1,1437.6 967.7,1453.8 937.2,1470.5 907.6,1487.7 879.1,1505.3 851.6,1523.3 825.4,1541.7 800.6,1560.4 777.1,1579.4 755.2,1598.7 734.9,1618.2 716.3,1637.9 699.5,1657.8 684.7,1677.8 671.9,1698.0 661.2,1718.3  A 794.185,794.185 0.00 0,1 627.5,1701.4 L 627.5,1701.4 639.5,1680.8 653.7,1660.3 670.0,1640.0 688.1,1619.9 708.0,1600.0 729.7,1580.3 753.0,1560.8 777.8,1541.7 804.0,1522.8 831.5,1504.2 860.2,1486.0 890.0,1468.2 920.8,1450.8 952.6,1433.8 985.2,1417.3 1018.4,1401.3 1052.3,1385.8 1086.7,1370.9 1121.6,1356.6 1156.7,1342.9 1192.1,1330.0 1227.6,1317.7 1263.2,1306.2 1298.7,1295.5 1334.0,1285.7 1369.1,1276.7 1403.9,1268.7 1438.2,1261.6 1472.0,1255.6 1505.1,1250.7 1537.6,1246.8 1569.2,1244.2 1599.9,1242.7 1629.6,1242.5 1658.2,1243.7 1685.7,1246.2 1711.9,1250.2 1736.7,1255.7 1760.1,1262.7  Z" style="stroke-width: 1.0;  stroke: rgb(0,0,0); fill: rgb(46,230,107); opacity: 0.833;" />
<path d="M 1771.688,1226.298 A 804.185,804.185 0.00 0,1 1760.1,1262.7 L 1760.1,1262.7 1726.7,1251.7 1692.4,1241.3 1657.2,1231.5 1621.1,1222.2 1584.2,1213.5 1546.5,1205.2 1508.2,1197.4 1469.1,1190.0 1429.5,1183.0 1389.4,1176.3 1348.7,1170.0 1307.6,1164.0 1266.2,1158.3 1224.4,1152.9 1182.3,1147.9 1140.0,1143.0 1097.5,1138.5 1054.8,1134.2 1012.1,1130.2 969.4,1126.5 926.7,1123.0 884.1,1119.8 841.5,1116.9 799.2,1114.3 757.0,1112.0 715.2,1110.0 673.6,1108.4 632.4,1107.2 591.6,1106.4 551.2,1106.0 511.4,1106.0 472.1,1106.6 433.4,1107.6 395.3,1109.3 357.9,1111.5 321.3,1114.3 285.4,1117.9 250.3,1122.2 216.1,1127.3  A 794.185,794.185 0.00 0,1 210.9,1089.9 L 210.9,1089.9 246.5,1086.2 282.8,1083.2 319.7,1080.8 357.3,1079.1 395.5,1077.8 434.2,1077.1 473.5,1076.9 513.3,1077.0 553.4,1077.6 594.1,1078.6 635.0,1079.9 676.3,1081.6 718.0,1083.6 759.8,1085.8 801.9,1088.4 844.2,1091.2 886.6,1094.2 929.1,1097.5 971.7,1101.0 1014.3,1104.7 1056.9,1108.6 1099.4,1112.8 1141.8,1117.2 1184.1,1121.7 1226.1,1126.6 1268.0,1131.6 1309.6,1136.9 1350.9,1142.5 1391.8,1148.3 1432.3,1154.4 1472.4,1160.8 1512.0,1167.6 1551.0,1174.7 1589.5,1182.2 1627.4,1190.1 1664.5,1198.4 1701.0,1207.2 1736.8,1216.5 1771.7,1226.3  Z" style="stroke-width: 1.0;  stroke: rgb(0,0,0); fill: rgb(46,230,107); opacity: 0.833;" />
<path d="M 1793.077,1133.198 A 804.185,804.185 0.00 0,1 1785.9,1170.7 L 1785.9,1170.7 1754.8,1163.3 1723.2,1154.4 1691.0,1144.0 1658.3,1132.4 1625.1,1119.5 1591.4,1105.4 1557.3,1090.2 1522.8,1074.0 1487.9,1056.9 1452.8,1038.9 1417.4,1020.0 1381.8,1000.5 1346.0,980.2 1310.1,959.2 1274.1,937.7 1238.2,915.7 1202.2,893.1 1166.4,870.1 1130.7,846.8 1095.3,823.1 1060.1,799.1 1025.2,774.8 990.8,750.2 956.8,725.5 923.3,700.6 890.4,675.6 858.2,650.4 826.7,625.2 796.0,599.8 766.2,574.5 737.4,549.0 709.6,523.6 682.9,498.1 657.4,472.6 633.1,447.2 610.2,421.7 588.8,396.2 568.8,370.7 550.5,345.3  A 794.185,794.185 0.00 0,1 582.1,324.6 L 582.1,324.6 598.7,350.0 616.9,375.3 636.9,400.7 658.4,426.1 681.3,451.5 705.7,477.0 731.3,502.4 758.1,527.9 786.0,553.3 815.0,578.7 845.0,604.1 875.8,629.3 907.4,654.5 939.8,679.5 972.8,704.4 1006.4,729.0 1040.5,753.5 1075.0,777.6 1109.9,801.5 1145.1,825.0 1180.6,848.2 1216.2,870.8 1251.9,893.1 1287.7,914.7 1323.4,935.8 1359.1,956.2 1394.7,976.0 1430.0,994.9 1465.2,1013.1 1500.1,1030.3 1534.6,1046.6 1568.7,1061.8 1602.4,1076.0 1635.6,1088.9 1668.3,1100.6 1700.5,1111.0 1732.0,1119.9 1762.9,1127.4 1793.1,1133.2  Z" style="stroke-width: 1.0;  stroke: rgb(0,0,0); fill: rgb(46,230,107); opacity: 0.833;" />
<path d="M 1725.456,1347.027 A 804.185,804.185 0.00 0,1 1708.1,1381.1 L 1708.1,1381.1 1676.7,1363.7 1645.1,1345.3 1613.3,1326.0 1581.3,1305.7 1549.1,1284.7 1516.8,1262.8 1484.3,1240.3 1451.7,1217.1 1419.0,1193.2 1386.2,1168.8 1353.2,1143.9 1320.3,1118.5 1287.3,1092.7 1254.2,1066.4 1221.2,1039.9 1188.2,1013.0 1155.3,985.8 1122.5,958.4 1089.8,930.8 1057.2,903.0 1024.8,875.1 992.6,847.0 960.7,818.9 929.1,790.6 897.8,762.3 866.9,734.0 836.4,705.6 806.4,677.3 776.8,648.9 747.8,620.6 719.4,592.3 691.7,564.0 664.6,535.8 638.3,507.6 612.8,479.4 588.1,451.4 564.4,423.3 541.6,395.3 519.9,367.4  A 794.185,794.185 0.00 0,1 550.5,345.3 L 550.5,345.3 570.3,373.2 591.3,401.2 613.4,429.3 636.7,457.4 660.9,485.7 686.1,514.0 712.2,542.4 739.1,570.8 766.8,599.3 795.2,627.8 824.2,656.4 853.9,684.9 884.0,713.5 914.7,742.0 945.8,770.5 977.4,798.9 1009.2,827.3 1041.4,855.4 1073.8,883.5 1106.5,911.3 1139.3,939.0 1172.3,966.3 1205.4,993.4 1238.5,1020.1 1271.7,1046.5 1304.9,1072.4 1338.1,1097.9 1371.2,1122.8 1404.2,1147.2 1437.2,1171.0 1470.0,1194.0 1502.6,1216.4 1535.1,1237.9 1567.4,1258.6 1599.5,1278.4 1631.3,1297.2 1663.0,1315.0 1694.3,1331.6 1725.5,1347.0  Z" style="stroke-width: 1.0;  stroke: rgb(0,0,0); fill: rgb(230,230,46); opacity: 0.833;" />
<path d="M 1561.846,1575.363 A 804.185,804.185 0.00 0,1 1533.9,1601.4 L 1533.9,1601.4 1514.6,1581.0 1493.3,1561.0 1470.3,1541.4 1445.5,1522.2 1419.1,1503.4 1391.2,1485.0 1361.9,1466.9 1331.2,1449.2 1299.3,1431.9 1266.3,1415.0 1232.3,1398.5 1197.3,1382.3 1161.5,1366.5 1125.0,1351.2 1087.8,1336.3 1050.0,1321.8 1011.8,1307.8 973.2,1294.2 934.3,1281.2 895.2,1268.7 856.0,1256.8 816.8,1245.4 777.6,1234.7 738.6,1224.6 699.8,1215.2 661.3,1206.6 623.3,1198.7 585.7,1191.6 548.7,1185.4 512.3,1180.2 476.7,1175.8 441.9,1172.5 407.9,1170.3 374.9,1169.2 343.0,1169.3 312.2,1170.6 282.5,1173.3 254.2,1177.3 227.1,1182.8  A 794.185,794.185 0.00 0,1 219.3,1145.9 L 219.3,1145.9 247.7,1141.4 277.2,1138.4 308.0,1136.7 339.9,1136.3 372.8,1137.1 406.7,1139.0 441.5,1142.1 477.2,1146.1 513.6,1151.1 550.7,1157.1 588.3,1163.9 626.6,1171.5 665.3,1179.9 704.3,1189.0 743.7,1198.8 783.3,1209.2 823.1,1220.3 862.9,1231.9 902.7,1244.1 942.4,1256.7 981.9,1269.9 1021.2,1283.5 1060.1,1297.6 1098.5,1312.1 1136.5,1327.0 1173.8,1342.3 1210.4,1358.0 1246.3,1374.1 1281.2,1390.5 1315.2,1407.3 1348.1,1424.5 1379.9,1442.0 1410.4,1459.9 1439.6,1478.1 1467.3,1496.8 1493.5,1515.8 1518.0,1535.2 1540.9,1555.1 1561.8,1575.4  Z" style="stroke-width: 1.0;  stroke: rgb(0,0,0); fill: rgb(230,46,46); opacity: 0.833;" />
<path d="M 1601.414,1533.867 A 804.185,804.185 0.00 0,1 1575.4,1561.8 L 1575.4,1561.8 1546.8,1533.8 1518.3,1505.6 1489.8,1477.0 1461.2,1448.3 1432.7,1419.3 1404.1,1390.1 1375.6,1360.8 1347.1,1331.3 1318.5,1301.6 1290.0,1271.8 1261.5,1241.9 1233.0,1211.8 1204.4,1181.7 1176.0,1151.5 1147.5,1121.2 1119.1,1090.8 1090.6,1060.4 1062.3,1030.0 1033.9,999.5 1005.7,969.0 977.5,938.4 949.3,907.9 921.2,877.3 893.2,846.8 865.3,816.2 837.5,785.7 809.8,755.2 782.2,724.7 754.8,694.2 727.5,663.7 700.3,633.3 673.3,602.9 646.5,572.5 619.9,542.2 593.6,511.9 567.4,481.6 541.4,451.3 515.8,421.1 490.4,390.9  A 794.185,794.185 0.00 0,1 519.9,367.4 L 519.9,367.4 543.2,397.8 567.0,428.2 591.3,458.7 616.0,489.2 641.2,519.9 666.7,550.5 692.6,581.2 718.9,612.0 745.4,642.8 772.3,673.7 799.4,704.6 826.7,735.5 854.3,766.5 882.1,797.4 910.0,828.4 938.2,859.4 966.4,890.4 994.8,921.3 1023.3,952.2 1052.0,983.1 1080.7,1013.9 1109.4,1044.6 1138.3,1075.2 1167.1,1105.7 1196.1,1136.1 1225.0,1166.3 1254.0,1196.3 1283.0,1226.1 1311.9,1255.8 1340.9,1285.1 1369.9,1314.2 1398.9,1343.0 1427.9,1371.5 1456.8,1399.6 1485.8,1427.3 1514.7,1454.7 1543.6,1481.5 1572.5,1508.0 1601.4,1533.9  Z" style="stroke-width: 1.0;  stroke: rgb(0,0,0); fill: rgb(230,46,46); opacity: 0.833;" />
<path d="M 1280.708,1753.602 A 804.185,804.185 0.00 0,1 1244.6,1766.1 L 1244.6,1766.1 1233.3,1732.4 1221.1,1698.3 1207.9,1663.8 1193.8,1629.0 1178.9,1593.8 1163.1,1558.3 1146.7,1522.6 1129.6,1486.5 1111.8,1450.3 1093.5,1413.8 1074.7,1377.1 1055.3,1340.3 1035.5,1303.4 1015.4,1266.4 994.8,1229.3 973.9,1192.2 952.7,1155.1 931.2,1118.1 909.5,1081.2 887.6,1044.3 865.5,1007.7 843.2,971.2 820.7,935.0 798.1,899.1 775.4,863.5 752.6,828.3 729.7,793.6 706.7,759.3 683.6,725.6 660.5,692.4 637.2,659.8 613.9,628.0 590.6,596.8 567.1,566.5 543.5,537.0 519.9,508.5 496.1,480.8 472.3,454.3 448.3,428.8  A 794.185,794.185 0.00 0,1 476.0,403.2 L 476.0,403.2 499.6,430.6 523.1,459.0 546.5,488.1 569.8,518.1 592.9,548.8 616.0,580.2 639.1,612.2 662.0,644.8 684.9,678.0 707.7,711.7 730.5,745.8 753.1,780.4 775.8,815.4 798.3,850.8 820.8,886.4 843.1,922.3 865.4,958.5 887.5,994.8 909.5,1031.4 931.4,1068.0 953.0,1104.8 974.5,1141.6 995.8,1178.5 1016.8,1215.4 1037.6,1252.3 1058.0,1289.1 1078.2,1325.9 1098.0,1362.5 1117.4,1399.1 1136.3,1435.5 1154.8,1471.7 1172.8,1507.8 1190.2,1543.7 1207.1,1579.3 1223.3,1614.7 1238.8,1649.9 1253.6,1684.7 1267.6,1719.3 1280.7,1753.6  Z" style="stroke-width: 1.0;  stroke: rgb(0,0,0); fill: rgb(46,230,46); opacity: 0.833;" />
<path d="M 1000.000,195.815 A 804.185,804.185 0.00 0,1 1057.3,197.9 L 1057.3,197.9 1055.7,213.5 1053.0,229.0 1049.2,244.5 1044.5,259.7 1038.9,274.6 1032.4,289.2 1025.0,303.3 1016.8,316.8 1007.9,329.8 998.2,342.1 987.8,353.7 976.8,364.5 965.2,374.5 953.1,383.6 940.4,391.8 927.3,399.0 913.9,405.3 900.0,410.6 885.9,414.9 871.6,418.2 857.0,420.4 842.4,421.5 827.6,421.6 812.9,420.7 798.2,418.7 783.6,415.6 769.1,411.6 754.9,406.6 740.9,400.6 727.3,393.6 714.1,385.8 701.4,377.1 689.3,367.6 677.7,357.3 666.8,346.4 656.6,334.7 647.3,322.5 638.8,309.8 631.3,296.6  A 794.185,794.185 0.00 0,1 682.4,272.1 L 682.4,272.1 688.6,285.4 695.6,298.3 703.2,310.9 711.4,322.9 720.2,334.3 729.5,345.1 739.2,355.2 749.3,364.6 759.7,373.1 770.4,380.8 781.3,387.5 792.4,393.3 803.6,398.1 814.8,401.9 826.1,404.7 837.4,406.5 848.6,407.2 859.7,406.8 870.7,405.4 881.4,402.9 891.9,399.3 902.2,394.7 912.1,389.1 921.6,382.5 930.8,374.9 939.6,366.4 947.9,357.0 955.6,346.8 962.9,335.7 969.6,323.9 975.7,311.4 981.2,298.3 986.0,284.7 990.2,270.6 993.7,256.0 996.4,241.2 998.4,226.2 999.6,211.0 1000.0,195.8  Z" style="stroke-width: 1.0;  stroke: rgb(0,0,0); fill: rgb(46,168,230); opacity: 0.833;" />
<path d="M 1462.392,342.043 A 804.185,804.185 0.00 0,1 1508.1,376.7 L 1508.1,376.7 1494.8,391.4 1479.8,405.4 1463.0,418.7 1444.7,431.1 1424.8,442.7 1403.6,453.5 1381.1,463.4 1357.4,472.4 1332.7,480.6 1307.0,487.9 1280.3,494.3 1252.9,499.8 1224.9,504.4 1196.2,508.1 1167.1,510.9 1137.6,512.8 1107.8,513.7 1077.8,513.8 1047.8,513.0 1017.8,511.2 987.9,508.6 958.2,505.1 928.8,500.7 899.9,495.4 871.5,489.3 843.6,482.4 816.5,474.6 790.2,466.0 764.8,456.6 740.4,446.5 717.1,435.6 695.0,424.0 674.2,411.7 654.8,398.7 636.9,385.1 620.6,370.8 606.0,356.0 593.1,340.6 582.1,324.6  A 794.185,794.185 0.00 0,1 631.3,296.6 L 631.3,296.6 640.6,312.3 651.6,327.6 664.3,342.4 678.5,356.7 694.3,370.3 711.5,383.4 730.0,395.8 749.7,407.6 770.5,418.6 792.4,428.9 815.2,438.3 838.9,447.0 863.3,454.9 888.4,461.9 914.1,468.0 940.3,473.2 966.9,477.5 993.8,481.0 1020.9,483.4 1048.1,485.0 1075.3,485.6 1102.5,485.3 1129.5,484.0 1156.3,481.7 1182.7,478.6 1208.6,474.4 1234.1,469.4 1258.8,463.4 1282.9,456.6 1306.1,448.8 1328.4,440.1 1349.7,430.6 1369.9,420.3 1388.9,409.1 1406.6,397.2 1422.9,384.5 1437.7,371.0 1450.9,356.9 1462.4,342.0  Z" style="stroke-width: 1.0;  stroke: rgb(0,0,0); fill: rgb(46,230,230); opacity: 0.833;" />
<path d="M 1790.507,852.309 A 804.185,804.185 0.00 0,1 1799.0,909.0 L 1799.0,909.0 1767.0,912.0 1733.9,913.8 1699.8,914.4 1664.9,914.1 1629.0,912.7 1592.4,910.4 1555.0,907.3 1516.9,903.3 1478.2,898.6 1439.0,893.1 1399.2,887.0 1359.0,880.2 1318.4,872.9 1277.6,865.0 1236.4,856.6 1195.1,847.7 1153.7,838.3 1112.2,828.5 1070.7,818.3 1029.3,807.8 988.1,796.8 947.1,785.5 906.3,773.9 866.0,761.9 826.0,749.6 786.6,737.0 747.7,724.0 709.5,710.7 671.9,697.1 635.2,683.2 599.4,668.9 564.4,654.2 530.5,639.2 497.7,623.8 466.1,607.9 435.7,591.6 406.6,574.9 378.9,557.6 352.7,539.8  A 794.185,794.185 0.00 0,1 387.2,494.9 L 387.2,494.9 410.8,513.3 436.0,531.2 462.9,548.6 491.3,565.5 521.1,581.9 552.2,597.9 584.6,613.5 618.1,628.7 652.7,643.4 688.3,657.8 724.8,671.8 762.1,685.4 800.1,698.6 838.8,711.5 878.1,724.0 917.8,736.1 958.0,747.8 998.5,759.1 1039.3,769.9 1080.2,780.4 1121.2,790.4 1162.2,799.9 1203.2,808.9 1244.1,817.3 1284.7,825.2 1325.1,832.5 1365.0,839.2 1404.6,845.1 1443.6,850.4 1482.1,854.9 1519.9,858.6 1557.0,861.4 1593.3,863.3 1628.7,864.3 1663.2,864.2 1696.7,863.0 1729.1,860.7 1760.4,857.1 1790.5,852.3  Z" style="stroke-width: 1.0;  stroke: rgb(0,0,0); fill: rgb(46,230,168); opacity: 0.833;" />
<path d="M 1799.021,909.010 A 804.185,804.185 0.00 0,1 1803.5,966.2 L 1803.5,966.2 1763.2,967.9 1722.7,969.9 1682.2,971.9 1641.5,974.1 1600.7,976.3 1559.9,978.7 1518.9,981.2 1477.9,983.8 1436.8,986.4 1395.7,989.1 1354.5,991.9 1313.2,994.8 1271.9,997.7 1230.6,1000.6 1189.3,1003.7 1147.9,1006.7 1106.6,1009.8 1065.3,1012.9 1023.9,1016.1 982.6,1019.3 941.3,1022.6 900.1,1025.8 858.8,1029.2 817.7,1032.5 776.6,1035.9 735.5,1039.3 694.6,1042.8 653.7,1046.4 612.8,1049.9 572.1,1053.6 531.5,1057.3 491.0,1061.0 450.6,1064.9 410.3,1068.8 370.1,1072.8 330.1,1076.9 290.2,1081.1 250.5,1085.4 210.9,1089.9  A 794.185,794.185 0.00 0,1 206.5,1033.4 L 206.5,1033.4 246.3,1031.7 286.2,1029.8 326.3,1027.7 366.5,1025.6 406.8,1023.3 447.2,1021.0 487.7,1018.5 528.3,1016.0 569.0,1013.3 609.8,1010.6 650.7,1007.8 691.6,1005.0 732.6,1002.1 773.7,999.1 814.8,996.1 856.0,993.1 897.3,989.9 938.5,986.8 979.8,983.6 1021.1,980.4 1062.5,977.1 1103.8,973.8 1145.1,970.5 1186.4,967.1 1227.7,963.7 1269.0,960.2 1310.2,956.7 1351.4,953.1 1392.6,949.5 1433.7,945.8 1474.7,942.0 1515.6,938.2 1556.4,934.3 1597.2,930.4 1637.8,926.3 1678.3,922.1 1718.7,917.9 1758.9,913.5 1799.0,909.0  Z" style="stroke-width: 1.0;  stroke: rgb(0,0,0); fill: rgb(46,230,168); opacity: 0.833;" />
<path d="M 1785.851,1170.738 A 804.185,804.185 0.00 0,1 1771.7,1226.3 L 1771.7,1226.3 1735.3,1215.4 1698.6,1203.8 1661.7,1191.7 1624.5,1179.1 1587.1,1166.0 1549.4,1152.4 1511.6,1138.5 1473.5,1124.1 1435.3,1109.4 1396.9,1094.4 1358.4,1079.0 1319.8,1063.4 1281.1,1047.6 1242.3,1031.5 1203.5,1015.2 1164.6,998.7 1125.7,982.0 1086.9,965.2 1048.0,948.3 1009.3,931.2 970.6,914.0 932.1,896.7 893.6,879.2 855.4,861.7 817.3,844.1 779.5,826.5 741.9,808.7 704.6,790.8 667.6,772.9 631.0,754.8 594.7,736.7 558.8,718.5 523.3,700.1 488.4,681.7 453.9,663.1 419.9,644.3 386.5,625.4 353.7,606.4 321.6,587.1  A 794.185,794.185 0.00 0,1 352.7,539.8 L 352.7,539.8 382.1,560.2 412.3,580.3 443.5,600.2 475.5,619.9 508.3,639.3 541.9,658.6 576.1,677.8 611.0,696.8 646.5,715.6 682.6,734.3 719.1,752.9 756.1,771.3 793.5,789.6 831.3,807.8 869.4,825.8 907.8,843.8 946.5,861.5 985.3,879.1 1024.3,896.5 1063.5,913.8 1102.7,930.8 1142.0,947.6 1181.3,964.2 1220.6,980.5 1259.8,996.5 1298.9,1012.2 1337.9,1027.5 1376.8,1042.5 1415.5,1057.0 1453.9,1071.1 1492.2,1084.7 1530.1,1097.8 1567.7,1110.3 1605.1,1122.2 1642.0,1133.4 1678.6,1144.0 1714.8,1153.7 1750.5,1162.7 1785.9,1170.7  Z" style="stroke-width: 1.0;  stroke: rgb(0,0,0); fill: rgb(46,230,107); opacity: 0.833;" />
<path d="M 1414.335,1689.231 A 804.185,804.185 0.00 0,1 1364.2,1717.0 L 1364.2,1717.0 1348.7,1688.0 1331.8,1658.7 1313.5,1629.2 1293.9,1599.6 1273.1,1569.7 1251.2,1539.7 1228.1,1509.5 1204.1,1479.1 1179.2,1448.7 1153.5,1418.2 1126.9,1387.6 1099.6,1356.9 1071.7,1326.3 1043.2,1295.7 1014.2,1265.1 984.7,1234.7 954.8,1204.3 924.5,1174.1 893.9,1144.2 863.0,1114.5 831.9,1085.1 800.7,1056.0 769.3,1027.4 737.9,999.1 706.4,971.4 674.8,944.3 643.4,917.7 611.9,891.8 580.6,866.7 549.4,842.3 518.3,818.8 487.4,796.3 456.7,774.7 426.1,754.2 395.9,734.9 365.9,716.8 336.1,699.9 306.6,684.5 277.4,670.5  A 794.185,794.185 0.00 0,1 302.7,619.8 L 302.7,619.8 332.5,636.6 362.4,654.6 392.5,673.8 422.8,694.0 453.3,715.2 483.9,737.4 514.7,760.5 545.7,784.4 576.8,809.1 608.0,834.5 639.3,860.5 670.6,887.2 702.0,914.4 733.5,942.0 764.9,970.2 796.3,998.7 827.6,1027.7 858.8,1056.9 889.9,1086.4 920.9,1116.1 951.6,1146.1 982.1,1176.2 1012.3,1206.5 1042.1,1236.9 1071.6,1267.3 1100.7,1297.8 1129.3,1328.3 1157.3,1358.8 1184.8,1389.3 1211.6,1419.7 1237.8,1450.1 1263.1,1480.4 1287.7,1510.6 1311.4,1540.7 1334.1,1570.7 1355.9,1600.5 1376.5,1630.2 1396.0,1659.8 1414.3,1689.2  Z" style="stroke-width: 1.0;  stroke: rgb(0,0,0); fill: rgb(230,107,46); opacity: 0.833;" />
<path d="M 1364.172,1717.002 A 804.185,804.185 0.00 0,1 1312.2,1741.1 L 1312.2,1741.1 1302.0,1719.6 1289.7,1698.1 1275.4,1676.6 1259.2,1655.2 1241.2,1633.8 1221.4,1612.6 1200.0,1591.5 1177.1,1570.6 1152.8,1549.9 1127.1,1529.5 1100.3,1509.4 1072.3,1489.6 1043.3,1470.2 1013.4,1451.1 982.6,1432.6 951.1,1414.5 919.0,1396.9 886.3,1380.0 853.2,1363.6 819.8,1347.9 786.1,1332.9 752.2,1318.6 718.3,1305.2 684.4,1292.6 650.7,1280.8 617.1,1270.0 583.9,1260.2 551.0,1251.4 518.7,1243.7 486.9,1237.1 455.8,1231.7 425.5,1227.5 396.0,1224.6 367.5,1223.1 340.0,1222.9 313.6,1224.2 288.5,1227.0 264.6,1231.4 242.1,1237.4  A 794.185,794.185 0.00 0,1 227.1,1182.8 L 227.1,1182.8 251.4,1178.1 277.0,1175.0 303.9,1173.5 331.9,1173.5 361.0,1174.9 391.1,1177.8 422.1,1181.9 453.9,1187.4 486.5,1194.0 519.7,1201.8 553.5,1210.7 587.8,1220.6 622.6,1231.5 657.6,1243.4 692.8,1256.1 728.2,1269.7 763.6,1284.0 799.0,1299.1 834.3,1314.9 869.3,1331.3 904.0,1348.3 938.3,1365.9 972.1,1384.0 1005.2,1402.6 1037.7,1421.6 1069.4,1441.1 1100.2,1460.9 1130.0,1481.1 1158.8,1501.5 1186.3,1522.3 1212.6,1543.3 1237.4,1564.5 1260.8,1585.9 1282.6,1607.5 1302.7,1629.2 1321.0,1651.0 1337.5,1672.9 1351.9,1694.9 1364.2,1717.0  Z" style="stroke-width: 1.0;  stroke: rgb(0,0,0); fill: rgb(230,107,46); opacity: 0.833;" />
<path d="M 1189.369,1781.571 A 804.185,804.185 0.00 0,1 1133.2,1793.1 L 1133.2,1793.1 1130.4,1778.4 1127.0,1763.8 1123.0,1749.6 1118.5,1735.6 1113.4,1722.2 1107.9,1709.2 1101.9,1696.8 1095.6,1685.1 1088.8,1674.1 1081.7,1663.9 1074.3,1654.6 1066.6,1646.1 1058.7,1638.6 1050.6,1632.0 1042.3,1626.5 1033.8,1622.0 1025.3,1618.5 1016.7,1616.2 1008.0,1614.9 999.3,1614.7 990.7,1615.5 982.1,1617.5 973.6,1620.5 965.2,1624.6 957.0,1629.8 949.0,1635.9 941.2,1643.0 933.6,1651.0 926.4,1659.9 919.5,1669.7 912.9,1680.3 906.7,1691.5 900.9,1703.5 895.6,1716.0 890.8,1729.0 886.5,1742.5 882.8,1756.3 879.6,1770.4 877.0,1784.6  A 794.185,794.185 0.00 0,1 821.4,1773.9 L 821.4,1773.9 825.2,1759.5 829.9,1745.3 835.3,1731.5 841.6,1718.0 848.6,1704.9 856.3,1692.4 864.6,1680.6 873.5,1669.3 883.0,1658.9 892.9,1649.2 903.4,1640.3 914.2,1632.3 925.4,1625.3 936.9,1619.2 948.7,1614.2 960.7,1610.1 972.8,1607.1 985.1,1605.1 997.5,1604.2 1009.9,1604.4 1022.3,1605.7 1034.7,1608.0 1046.9,1611.4 1059.0,1615.8 1070.9,1621.2 1082.5,1627.7 1093.8,1635.1 1104.8,1643.4 1115.4,1652.7 1125.6,1662.8 1135.3,1673.6 1144.4,1685.3 1152.9,1697.6 1160.9,1710.5 1168.1,1723.9 1174.6,1737.8 1180.4,1752.2 1185.3,1766.8 1189.4,1781.6  Z" style="stroke-width: 1.0;  stroke: rgb(0,0,0); fill: rgb(46,230,46); opacity: 0.833;" />
<path d="M 1244.577,1766.091 A 804.185,804.185 0.00 0,1 1189.4,1781.6 L 1189.4,1781.6 1181.7,1753.3 1172.2,1724.6 1161.0,1695.3 1148.2,1665.5 1133.9,1635.2 1118.1,1604.6 1101.0,1573.5 1082.7,1542.2 1063.2,1510.5 1042.6,1478.7 1020.9,1446.6 998.4,1414.4 974.9,1382.2 950.7,1349.9 925.7,1317.6 900.1,1285.4 873.9,1253.3 847.2,1221.5 820.0,1189.9 792.4,1158.6 764.5,1127.7 736.2,1097.3 707.7,1067.4 679.1,1038.1 650.3,1009.5 621.4,981.6 592.5,954.5 563.5,928.3 534.7,903.1 505.8,878.9 477.2,855.9 448.6,834.0 420.3,813.5 392.2,794.4 364.3,776.8 336.7,760.7 309.4,746.3 282.4,733.6 255.8,722.8  A 794.185,794.185 0.00 0,1 277.4,670.5 L 277.4,670.5 304.8,683.8 332.4,698.8 360.3,715.4 388.4,733.5 416.7,753.1 445.2,774.0 473.9,796.1 502.8,819.5 531.8,843.9 560.8,869.4 590.0,895.8 619.2,923.1 648.4,951.1 677.5,979.9 706.6,1009.4 735.6,1039.5 764.4,1070.0 793.0,1101.1 821.4,1132.5 849.4,1164.3 877.2,1196.4 904.5,1228.6 931.3,1261.1 957.7,1293.7 983.5,1326.3 1008.6,1359.0 1033.0,1391.6 1056.7,1424.2 1079.5,1456.6 1101.4,1488.9 1122.3,1520.9 1142.1,1552.8 1160.9,1584.3 1178.4,1615.6 1194.5,1646.5 1209.4,1677.0 1222.7,1707.1 1234.5,1736.8 1244.6,1766.1  Z" style="stroke-width: 1.0;  stroke: rgb(0,0,0); fill: rgb(46,230,46); opacity: 0.833;" />
<path d="M 1023.510,1803.841 A 804.185,804.185 0.00 0,1 966.2,1803.5 L 966.2,1803.5 966.7,1788.9 967.2,1774.4 967.6,1760.2 967.9,1746.2 968.1,1732.7 968.2,1719.6 968.2,1707.1 968.2,1695.2 968.0,1684.1 967.7,1673.8 967.4,1664.2 966.9,1655.6 966.3,1647.9 965.7,1641.2 965.0,1635.5 964.2,1630.8 963.3,1627.2 962.3,1624.7 961.2,1623.3 960.1,1622.9 958.9,1623.7 957.7,1625.6 956.3,1628.5 955.0,1632.5 953.6,1637.6 952.1,1643.7 950.7,1650.7 949.2,1658.7 947.6,1667.6 946.1,1677.3 944.6,1687.8 943.0,1699.1 941.5,1711.0 940.0,1723.4 938.6,1736.4 937.1,1749.8 935.8,1763.4 934.5,1777.4 933.2,1791.4  A 794.185,794.185 0.00 0,1 877.0,1784.6 L 877.0,1784.6 879.4,1770.6 882.1,1756.8 885.2,1743.2 888.5,1729.9 892.2,1717.1 896.0,1704.8 900.1,1693.1 904.4,1682.1 908.9,1671.7 913.5,1662.2 918.3,1653.6 923.2,1645.8 928.1,1639.0 933.2,1633.2 938.2,1628.4 943.3,1624.6 948.4,1621.9 953.5,1620.3 958.5,1619.8 963.5,1620.3 968.4,1622.0 973.2,1624.8 977.9,1628.6 982.4,1633.5 986.8,1639.4 991.1,1646.3 995.1,1654.2 999.0,1663.0 1002.6,1672.7 1006.0,1683.3 1009.1,1694.6 1012.0,1706.6 1014.6,1719.2 1016.9,1732.4 1018.9,1746.1 1020.6,1760.2 1021.9,1774.6 1022.9,1789.1 1023.5,1803.8  Z" style="stroke-width: 1.0;  stroke: rgb(0,0,0); fill: rgb(230,46,230); opacity: 0.833;" />
<path d="M 1095.357,201.489 A 804.185,804.185 0.00 0,1 1170.7,214.1 L 1170.7,214.1 1164.9,236.4 1156.9,259.0 1146.9,281.9 1135.1,305.1 1121.4,328.4 1106.0,352.0 1089.0,375.6 1070.4,399.2 1050.4,422.8 1029.1,446.4 1006.5,469.8 982.7,493.1 957.8,516.1 932.0,538.8 905.2,561.2 877.7,583.2 849.4,604.8 820.5,625.8 791.0,646.3 761.1,666.1 730.8,685.3 700.3,703.7 669.5,721.3 638.6,738.1 607.7,753.9 576.9,768.8 546.2,782.6 515.8,795.4 485.7,806.9 456.0,817.3 426.8,826.4 398.2,834.1 370.2,840.5 343.0,845.4 316.6,848.7 291.1,850.5 266.6,850.6 243.2,849.0 221.0,845.6  A 794.185,794.185 0.00 0,1 239.1,772.4 L 239.1,772.4 259.3,777.3 280.6,780.6 303.0,782.3 326.4,782.4 350.7,781.0 375.9,778.0 401.8,773.7 428.4,767.9 455.5,760.9 483.1,752.5 511.1,742.9 539.3,732.2 567.8,720.3 596.4,707.3 625.0,693.4 653.5,678.4 682.0,662.6 710.1,645.9 738.0,628.4 765.4,610.2 792.3,591.3 818.7,571.7 844.4,551.6 869.3,531.0 893.4,509.9 916.6,488.4 938.8,466.6 959.8,444.5 979.7,422.3 998.4,399.8 1015.6,377.3 1031.5,354.7 1045.8,332.2 1058.5,309.8 1069.6,287.6 1078.9,265.5 1086.3,243.8 1091.9,222.4 1095.4,201.5  Z" style="stroke-width: 1.0;  stroke: rgb(0,0,0); fill: rgb(46,168,230); opacity: 0.833;" />
<path d="M 1681.532,573.119 A 804.185,804.185 0.00 0,1 1719.0,639.8 L 1719.0,639.8 1699.9,648.2 1679.4,655.2 1657.6,660.8 1634.5,665.0 1610.3,667.9 1585.1,669.4 1559.0,669.6 1532.0,668.6 1504.3,666.4 1476.0,663.0 1447.1,658.4 1417.8,652.8 1388.1,646.0 1358.2,638.2 1328.1,629.4 1298.0,619.7 1267.9,609.0 1238.0,597.5 1208.2,585.1 1178.8,571.9 1149.8,557.9 1121.4,543.3 1093.5,528.0 1066.3,512.0 1039.9,495.5 1014.4,478.4 989.8,460.9 966.3,442.9 943.9,424.5 922.8,405.8 903.0,386.8 884.7,367.6 867.8,348.2 852.5,328.6 838.9,309.0 827.1,289.3 817.1,269.6 809.1,250.1 803.1,230.6  A 794.185,794.185 0.00 0,1 877.0,215.4 L 877.0,215.4 880.9,233.8 886.6,252.4 894.1,271.1 903.3,289.9 914.2,308.6 926.7,327.3 940.6,345.8 956.0,364.2 972.8,382.3 990.8,400.0 1010.0,417.4 1030.3,434.4 1051.7,450.8 1074.0,466.8 1097.1,482.1 1121.1,496.8 1145.7,510.8 1170.9,524.1 1196.7,536.6 1222.9,548.4 1249.4,559.2 1276.2,569.2 1303.2,578.2 1330.3,586.3 1357.3,593.4 1384.2,599.4 1411.0,604.4 1437.4,608.3 1463.5,611.1 1489.1,612.8 1514.1,613.3 1538.4,612.6 1562.0,610.7 1584.6,607.6 1606.4,603.2 1627.0,597.6 1646.5,590.7 1664.7,582.6 1681.5,573.1  Z" style="stroke-width: 1.0;  stroke: rgb(0,0,0); fill: rgb(230,168,46); opacity: 0.833;" />
<path d="M 1533.867,1601.414 A 804.185,804.185 0.00 0,1 1474.4,1649.4 L 1474.4,1649.4 1463.6,1636.0 1451.5,1623.3 1438.1,1611.3 1423.6,1600.1 1408.0,1589.7 1391.3,1580.1 1373.8,1571.5 1355.4,1563.8 1336.3,1557.0 1316.6,1551.1 1296.3,1546.3 1275.5,1542.4 1254.3,1539.5 1232.8,1537.7 1211.0,1536.9 1189.2,1537.0 1167.2,1538.2 1145.3,1540.5 1123.4,1543.7 1101.8,1547.9 1080.3,1553.0 1059.2,1559.2 1038.5,1566.2 1018.3,1574.2 998.7,1583.0 979.6,1592.7 961.3,1603.2 943.7,1614.4 927.0,1626.4 911.2,1639.1 896.3,1652.3 882.6,1666.2 869.9,1680.5 858.5,1695.3 848.3,1710.5 839.4,1726.1 831.9,1741.8 825.9,1757.8 821.4,1773.9  A 794.185,794.185 0.00 0,1 748.8,1753.4 L 748.8,1753.4 755.3,1736.7 763.5,1720.2 773.4,1703.9 785.0,1687.9 798.0,1672.3 812.5,1657.1 828.3,1642.4 845.4,1628.1 863.7,1614.4 883.1,1601.4 903.5,1589.0 924.9,1577.2 947.1,1566.2 970.1,1556.0 993.7,1546.5 1018.0,1537.9 1042.8,1530.2 1068.0,1523.3 1093.5,1517.3 1119.3,1512.2 1145.2,1508.1 1171.2,1505.0 1197.2,1502.8 1223.1,1501.6 1248.7,1501.4 1274.1,1502.2 1299.1,1504.0 1323.6,1506.8 1347.5,1510.6 1370.7,1515.3 1393.2,1521.1 1414.8,1527.9 1435.5,1535.6 1455.1,1544.3 1473.5,1553.9 1490.7,1564.5 1506.6,1575.9 1521.0,1588.2 1533.9,1601.4  Z" style="stroke-width: 1.0;  stroke: rgb(0,0,0); fill: rgb(230,46,46); opacity: 0.833;" />
<path d="M 1508.098,376.662 A 804.185,804.185 0.00 0,1 1578.4,441.3 L 1578.4,441.3 1555.7,462.2 1531.4,482.6 1505.4,502.7 1478.0,522.5 1449.1,541.9 1418.9,561.0 1387.5,579.8 1355.0,598.2 1321.3,616.4 1286.8,634.3 1251.3,651.9 1215.0,669.1 1178.0,686.1 1140.4,702.8 1102.2,719.1 1063.5,735.1 1024.5,750.7 985.1,766.0 945.4,780.9 905.6,795.3 865.7,809.3 825.7,822.8 785.8,835.9 746.1,848.3 706.5,860.3 667.1,871.5 628.1,882.2 589.5,892.1 551.3,901.2 513.6,909.6 476.5,917.1 440.1,923.7 404.4,929.3 369.4,933.9 335.3,937.4 302.0,939.7 269.7,940.9 238.4,940.7 208.2,939.1  A 794.185,794.185 0.00 0,1 221.0,845.6 L 221.0,845.6 248.1,850.1 276.6,853.1 306.2,854.6 337.0,854.8 368.9,853.7 401.7,851.3 435.5,847.8 470.1,843.2 505.5,837.5 541.6,830.8 578.3,823.2 615.5,814.7 653.2,805.4 691.3,795.3 729.6,784.4 768.2,772.8 806.8,760.6 845.6,747.7 884.2,734.2 922.8,720.2 961.1,705.7 999.1,690.7 1036.7,675.1 1073.8,659.2 1110.3,642.8 1146.2,626.0 1181.3,608.9 1215.6,591.4 1248.9,573.5 1281.1,555.3 1312.2,536.7 1342.1,517.8 1370.6,498.6 1397.7,479.1 1423.3,459.3 1447.2,439.1 1469.4,418.6 1489.7,397.8 1508.1,376.7  Z" style="stroke-width: 1.0;  stroke: rgb(0,0,0); fill: rgb(46,230,230); opacity: 0.833;" />
<path d="M 1756.627,727.549 A 804.185,804.185 0.00 0,1 1783.6,819.2 L 1783.6,819.2 1752.5,827.1 1720.7,836.4 1688.5,847.1 1655.7,859.2 1622.4,872.4 1588.7,886.9 1554.6,902.3 1520.1,918.8 1485.2,936.3 1450.1,954.5 1414.7,973.6 1379.2,993.5 1343.4,1014.0 1307.6,1035.2 1271.7,1056.9 1235.8,1079.2 1199.9,1101.9 1164.1,1125.0 1128.5,1148.6 1093.1,1172.4 1057.9,1196.6 1023.1,1221.0 988.7,1245.7 954.7,1270.5 921.3,1295.6 888.4,1320.7 856.2,1346.0 824.6,1371.3 793.9,1396.8 764.1,1422.3 735.2,1447.8 707.3,1473.3 680.4,1498.9 654.8,1524.4 630.4,1550.0 607.3,1575.6 585.7,1601.1 565.5,1626.7 546.9,1652.3  A 794.185,794.185 0.00 0,1 472.8,1593.9 L 472.8,1593.9 496.0,1568.4 520.5,1543.0 546.1,1517.6 572.6,1492.3 600.2,1467.0 628.7,1441.8 658.1,1416.6 688.2,1391.4 719.1,1366.2 750.6,1341.1 782.8,1316.1 815.6,1291.1 848.9,1266.1 882.6,1241.3 916.8,1216.5 951.3,1191.8 986.2,1167.3 1021.3,1142.9 1056.7,1118.7 1092.2,1094.7 1128.0,1070.9 1163.8,1047.4 1199.6,1024.2 1235.6,1001.3 1271.5,978.8 1307.3,956.7 1343.1,935.0 1378.8,913.8 1414.4,893.1 1449.8,873.1 1485.0,853.6 1519.9,834.9 1554.7,816.8 1589.1,799.6 1623.3,783.2 1657.1,767.8 1690.7,753.3 1723.8,739.9 1756.6,727.5  Z" style="stroke-width: 1.0;  stroke: rgb(0,0,0); fill: rgb(230,168,46); opacity: 0.833;" />
<path d="M 1718.982,639.753 A 804.185,804.185 0.00 0,1 1756.6,727.5 L 1756.6,727.5 1721.3,740.0 1685.3,752.0 1648.6,763.7 1611.4,775.1 1573.6,786.2 1535.3,797.0 1496.6,807.5 1457.4,817.9 1417.8,828.0 1377.9,837.9 1337.6,847.6 1297.0,857.1 1256.2,866.5 1215.1,875.7 1173.9,884.7 1132.5,893.6 1091.0,902.3 1049.4,910.8 1007.7,919.2 966.0,927.4 924.3,935.5 882.6,943.4 841.0,951.1 799.5,958.5 758.1,965.8 716.9,972.9 675.8,979.7 635.0,986.2 594.3,992.5 554.0,998.4 513.9,1004.0 474.1,1009.3 434.7,1014.1 395.6,1018.6 356.9,1022.6 318.7,1026.1 280.8,1029.1 243.4,1031.6 206.5,1033.4  A 794.185,794.185 0.00 0,1 208.2,939.1 L 208.2,939.1 242.1,941.2 276.9,942.3 312.4,942.6 348.8,942.1 385.8,940.8 423.5,938.8 461.9,936.1 500.8,932.8 540.2,928.9 580.2,924.4 620.5,919.4 661.3,914.0 702.4,908.1 743.8,901.8 785.4,895.1 827.3,888.1 869.3,880.7 911.3,873.0 953.5,864.9 995.6,856.6 1037.6,848.0 1079.5,839.1 1121.3,829.9 1162.8,820.4 1204.0,810.7 1244.9,800.7 1285.4,790.4 1325.5,779.9 1365.0,769.0 1404.0,757.8 1442.3,746.3 1480.0,734.5 1516.8,722.2 1552.9,709.6 1588.1,696.6 1622.4,683.1 1655.7,669.2 1687.9,654.8 1719.0,639.8  Z" style="stroke-width: 1.0;  stroke: rgb(0,0,0); fill: rgb(230,168,46); opacity: 0.833;" />
<path d="M 1803.473,966.174 A 804.185,804.185 0.00 0,1 1801.8,1061.7 L 1801.8,1061.7 1774.7,1060.5 1746.5,1061.1 1717.2,1063.3 1687.0,1067.0 1655.9,1072.2 1624.0,1078.8 1591.3,1086.7 1558.0,1095.9 1524.1,1106.3 1489.6,1117.8 1454.7,1130.3 1419.4,1143.8 1383.9,1158.3 1348.0,1173.6 1312.1,1189.7 1276.1,1206.5 1240.1,1224.1 1204.2,1242.3 1168.5,1261.1 1133.0,1280.4 1097.9,1300.3 1063.2,1320.6 1029.1,1341.3 995.5,1362.4 962.7,1383.8 930.6,1405.5 899.4,1427.5 869.2,1449.7 840.0,1472.0 812.0,1494.6 785.2,1517.3 759.8,1540.1 735.8,1563.0 713.3,1586.0 692.5,1609.0 673.4,1632.1 656.1,1655.2 640.8,1678.3 627.5,1701.4  A 794.185,794.185 0.00 0,1 546.9,1652.3 L 546.9,1652.3 564.3,1628.6 583.6,1605.0 604.5,1581.5 627.1,1558.1 651.3,1534.8 676.9,1511.6 703.8,1488.5 732.0,1465.5 761.4,1442.6 791.8,1419.9 823.3,1397.3 855.7,1374.8 889.0,1352.6 922.9,1330.5 957.6,1308.7 992.9,1287.2 1028.6,1266.0 1064.8,1245.0 1101.4,1224.5 1138.3,1204.3 1175.4,1184.6 1212.6,1165.4 1249.9,1146.7 1287.2,1128.6 1324.4,1111.1 1361.5,1094.3 1398.4,1078.3 1435.1,1063.0 1471.4,1048.6 1507.3,1035.0 1542.8,1022.5 1577.7,1011.0 1612.1,1000.7 1645.9,991.5 1679.0,983.6 1711.4,977.0 1742.9,971.9 1773.6,968.2 1803.5,966.2  Z" style="stroke-width: 1.0;  stroke: rgb(0,0,0); fill: rgb(46,230,168); opacity: 0.833;" />
<path d="M 1689.231,1414.335 A 804.185,804.185 0.00 0,1 1635.2,1493.1 L 1635.2,1493.1 1619.0,1481.8 1601.2,1471.5 1582.0,1462.4 1561.4,1454.5 1539.5,1447.7 1516.5,1442.0 1492.4,1437.4 1467.4,1433.9 1441.5,1431.6 1414.8,1430.3 1387.5,1430.0 1359.7,1430.9 1331.4,1432.7 1302.8,1435.6 1273.9,1439.5 1244.8,1444.3 1215.7,1450.1 1186.6,1456.9 1157.6,1464.5 1128.9,1473.0 1100.5,1482.3 1072.5,1492.5 1045.0,1503.4 1018.1,1515.1 991.9,1527.5 966.5,1540.6 941.9,1554.3 918.4,1568.6 895.8,1583.5 874.5,1598.9 854.4,1614.8 835.6,1631.1 818.2,1647.8 802.4,1664.8 788.1,1682.2 775.5,1699.7 764.7,1717.5 755.8,1735.4 748.8,1753.4  A 794.185,794.185 0.00 0,1 661.2,1718.3 L 661.2,1718.3 671.2,1699.4 683.3,1680.7 697.4,1662.3 713.4,1644.1 731.1,1626.2 750.6,1608.6 771.6,1591.3 794.1,1574.5 818.0,1558.1 843.3,1542.1 869.7,1526.6 897.2,1511.7 925.7,1497.2 955.1,1483.4 985.3,1470.2 1016.2,1457.6 1047.7,1445.7 1079.7,1434.5 1112.1,1424.0 1144.7,1414.3 1177.6,1405.3 1210.6,1397.2 1243.6,1390.0 1276.5,1383.7 1309.2,1378.2 1341.6,1373.7 1373.6,1370.2 1405.1,1367.7 1436.0,1366.2 1466.2,1365.7 1495.5,1366.4 1524.0,1368.2 1551.4,1371.1 1577.8,1375.2 1602.9,1380.5 1626.7,1387.1 1649.1,1394.9 1670.0,1403.9 1689.2,1414.3  Z" style="stroke-width: 1.0;  stroke: rgb(0,0,0); fill: rgb(230,230,46); opacity: 0.833;" />
<path d="M 1578.426,441.308 A 804.185,804.185 0.00 0,1 1663.0,544.8 L 1663.0,544.8 1631.6,566.7 1600.1,589.1 1568.6,612.1 1537.0,635.7 1505.3,659.7 1473.6,684.3 1441.8,709.2 1409.9,734.6 1378.0,760.3 1346.0,786.3 1314.0,812.6 1282.0,839.3 1249.9,866.1 1217.9,893.2 1185.9,920.5 1153.9,948.0 1122.0,975.6 1090.1,1003.4 1058.2,1031.2 1026.5,1059.2 994.9,1087.2 963.4,1115.3 932.1,1143.5 901.0,1171.7 870.0,1199.9 839.3,1228.1 808.8,1256.3 778.6,1284.6 748.7,1312.8 719.1,1341.0 689.9,1369.2 661.1,1397.4 632.7,1425.5 604.7,1453.6 577.2,1481.7 550.2,1509.8 523.8,1537.9 498.0,1565.9 472.8,1593.9  A 794.185,794.185 0.00 0,1 381.7,1498.4 L 381.7,1498.4 412.5,1473.5 443.3,1448.3 474.1,1422.9 505.0,1397.3 535.9,1371.5 566.8,1345.5 597.7,1319.3 628.7,1293.0 659.7,1266.5 690.8,1239.9 721.8,1213.1 752.9,1186.3 784.0,1159.3 815.2,1132.2 846.3,1105.1 877.5,1077.8 908.6,1050.5 939.8,1023.1 970.9,995.6 1002.1,968.1 1033.2,940.6 1064.3,913.0 1095.3,885.4 1126.3,857.7 1157.3,830.0 1188.2,802.3 1219.0,774.6 1249.7,746.9 1280.3,719.1 1310.9,691.4 1341.3,663.6 1371.5,635.8 1401.6,608.1 1431.6,580.3 1461.4,552.5 1491.0,524.7 1520.3,496.9 1549.5,469.1 1578.4,441.3  Z" style="stroke-width: 1.0;  stroke: rgb(0,0,0); fill: rgb(46,230,230); opacity: 0.833;" />
<path d="M 1170.738,214.149 A 804.185,804.185 0.00 0,1 1401.7,303.3 L 1401.7,303.3 1383.0,334.9 1363.5,366.6 1343.2,398.5 1322.1,430.5 1300.2,462.7 1277.7,495.0 1254.5,527.4 1230.7,559.9 1206.5,592.6 1181.7,625.3 1156.4,658.1 1130.8,690.9 1104.8,723.8 1078.4,756.6 1051.7,789.5 1024.8,822.4 997.6,855.1 970.2,887.8 942.7,920.4 915.0,952.9 887.1,985.2 859.2,1017.3 831.1,1049.2 803.0,1080.9 774.9,1112.2 746.7,1143.3 718.5,1173.9 690.3,1204.2 662.1,1234.0 633.9,1263.4 605.8,1292.2 577.6,1320.4 549.5,1348.1 521.5,1375.1 493.5,1401.3 465.5,1426.9 437.5,1451.6 409.6,1475.4 381.7,1498.4  A 794.185,794.185 0.00 0,1 259.4,1286.7 L 259.4,1286.7 285.8,1275.6 312.4,1262.7 339.4,1247.9 366.7,1231.5 394.2,1213.5 421.9,1194.0 449.9,1173.1 478.0,1150.9 506.2,1127.4 534.5,1102.8 562.9,1077.2 591.3,1050.6 619.8,1023.0 648.1,994.7 676.3,965.6 704.4,935.8 732.3,905.5 760.0,874.6 787.3,843.3 814.3,811.5 840.8,779.5 866.9,747.2 892.5,714.7 917.4,682.1 941.7,649.4 965.3,616.7 988.1,584.0 1009.9,551.5 1030.9,519.1 1050.8,486.9 1069.6,454.9 1087.3,423.3 1103.7,392.0 1118.7,361.1 1132.3,330.7 1144.4,300.7 1154.9,271.3 1163.7,242.4 1170.7,214.1  Z" style="stroke-width: 1.0;  stroke: rgb(0,0,0); fill: rgb(46,168,230); opacity: 0.833;" />
</g>
<defs>
<pattern id="hline-sparse" width="10" height="10" patternTransform="rotate(0 0 0)" patternUnits="userSpaceOnUse"><line x1="0" y1="0" x2="10" y2="0" style="stroke:black;stroke-width:2" /></pattern>
<pattern id="checker" width="10" height="10" patternTransform="rotate(45 0 0)" patternUnits="userSpaceOnUse"><line x1="0" y1="0" x2="10" y2="0" style="stroke:black;stroke-width:2" /><line x1="0" y1="0" x2="0" y2="10" style="stroke:black;stroke-width:2" /></pattern>
<pattern id="checker" width="10" height="10" patternTransform="rotate(45 0 0)" patternUnits="userSpaceOnUse"><line x1="0" y1="0" x2="10" y2="0" style="stroke:black;stroke-width:5" /><line x1="0" y1="0" x2="0" y2="10" style="stroke:black;stroke-width:4" /></pattern>
<pattern id="hline" width="10" height="10" patternTransform="rotate(0 0 0)" patternUnits="userSpaceOnUse"><line x1="0" y1="0" x2="10" y2="0" style="stroke:black;stroke-width:5" /></pattern>
<pattern id="vline-sparse" width="10" height="10" patternTransform="rotate(0 0 0)" patternUnits="userSpaceOnUse"><line x1="0" y1="0" x2="0" y2="10" style="stroke:black;stroke-width:2" /></pattern>
<pattern id="vline" width="10" height="10" patternTransform="rotate(0 0 0)" patternUnits="userSpaceOnUse"><line x1="0" y1="0" x2="0" y2="10" style="stroke:black;stroke-width:5" /></pattern>
</defs>
</svg>
